<?xml version="1.0" standalone="no"?>
  <!DOCTYPE svg PUBLIC "-//W3C//DTD SVG 1.1//EN" "http://www.w3.org/Graphics/SVG/1.1/DTD/svg11.dtd" >
  <svg>
  <metadata>
  Created by font-carrier
  </metadata>
  <defs>
  <font id="DISPLAYEDRUSbyDaymarius" horiz-adv-x="1061" vert-adv-y="1061" >
    <font-face
      
      font-family="DISPLAYED [RUS by Daymarius]"
      
      font-weight="400"
      
      font-stretch="normal"
      
      units-per-em="1000"
      
      ascent="925"
      
      descent="-165"
      
    />
      <missing-glyph />

      

      
      <glyph glyph-name="uni21" unicode="&#x21;" d="M200 60L200 40Q200 23 188.50 11.50Q177 0 160 0L140 0Q123 0 111.50 11.50Q100 23 100 40L100 60Q100 77 111.50 88.50Q123 100 140 100L160 100Q177 100 188.50 88.50Q200 77 200 60M200 649L190 119L110 119L100 649L200 649Z"  horiz-adv-x="300" vert-adv-y="1000"  />

      
      <glyph glyph-name="uni22" unicode="&#x22;" d="M200 542Q200 514 181 494.50Q162 475 132 475L132 505Q140 505 145 510Q150 515 150 522L150 525L140 525Q123 525 111.50 536.50Q100 548 100 565L100 585Q100 601 111.50 613Q123 625 140 625L160 625Q177 625 188.50 613Q200 601 200 585L200 542M329 542Q329 514 310 494.50Q291 475 262 475L262 505Q269 505 274 510Q279 515 279 522L279 525L269 525Q252 525 240.50 536.50Q229 548 229 565L229 585Q229 601 240.50 613Q252 625 269 625L289 625Q306 625 317.50 613Q329 601 329 585L329 542Z"  horiz-adv-x="429" vert-adv-y="1000"  />

      
      <glyph glyph-name="uni23" unicode="&#x23;" d="M363 474L459 474L499 624L603 624L563 474L646 474L619 374L536 374L509 274L597 274L570 174L482 174L442 24L339 24L379 174L282 174L242 24L139 24L179 174L100 174L127 274L206 274L232 374L149 374L175 474L259 474L299 624L403 624L363 474M432 374L336 374L309 274L406 274L432 374Z"  horiz-adv-x="745" vert-adv-y="1000"  />

      
      <glyph glyph-name="uni24" unicode="&#x24;" d="M300 210Q300 224 285 239.50Q270 255 248 268Q226 281 200 299.50Q174 318 152 338Q130 358 115 388.50Q100 419 100 454L100 524Q100 566 129.50 595Q159 624 200 624L200 724L300 724L300 624Q341 624 370.50 595Q400 566 400 524L400 457L300 457L300 500Q300 510 292.50 517Q285 524 275 524L225 524Q215 524 207.50 517Q200 510 200 500L200 454Q200 428 220.50 406Q241 384 270.50 367Q300 350 329.50 331Q359 312 379.50 281Q400 250 400 210L400 124Q400 83 370.50 53.50Q341 24 300 24L300-76L200-76L200 24Q159 24 129.50 53.50Q100 83 100 124L100 210L200 210L200 150Q200 139 207.50 131.50Q215 124 225 124L275 124Q285 124 292.50 131.50Q300 139 300 150L300 210Z"  horiz-adv-x="500" vert-adv-y="1000"  />

      
      <glyph glyph-name="uni25" unicode="&#x25;" d="M660 174L660 124Q660 83 630.50 53.50Q601 24 560 24L510 24Q469 24 439.50 53.50Q410 83 410 124L410 174Q410 216 439.50 245Q469 274 510 274L560 274Q601 274 630.50 245Q660 216 660 174M267 24L212 24L491 624L547 624L267 24M588 160Q588 177 575.50 189.50Q563 202 546 202L524 202Q507 202 494.50 189.50Q482 177 482 160L482 139Q482 122 494.50 109.50Q507 97 524 97L546 97Q563 97 575.50 109.50Q588 122 588 139L588 160M350 524L350 474Q350 433 320.50 403.50Q291 374 250 374L200 374Q159 374 129.50 403.50Q100 433 100 474L100 524Q100 566 129.50 595Q159 624 200 624L250 624Q291 624 320.50 595Q350 566 350 524M278 510Q278 527 265.50 539.50Q253 552 236 552L214 552Q197 552 184.50 539.50Q172 527 172 510L172 489Q172 472 184.50 459.50Q197 447 214 447L236 447Q253 447 265.50 459.50Q278 472 278 489L278 510Z"  horiz-adv-x="760" vert-adv-y="1000"  />

      
      <glyph glyph-name="uni26" unicode="&#x26;" d="M125 324Q100 358 100 400L100 524Q100 566 129.50 595Q159 624 200 624L375 624L375 524L225 524Q215 524 207.50 517Q200 510 200 500L200 400Q200 389 207.50 381.50Q215 374 225 374L300 374L300 424L400 424L400 374L450 374L450 274L400 274L400 24L300 24L200 24Q159 24 129.50 53.50Q100 83 100 124L100 250Q100 291 125 324M225 274Q215 274 207.50 267Q200 260 200 250L200 150Q200 139 207.50 131.50Q215 124 225 124L300 124L300 274L225 274Z"  horiz-adv-x="550" vert-adv-y="1000"  />

      
      <glyph glyph-name="uni27" unicode="&#x27;" d="M200 542Q200 514 181 494.50Q162 475 132 475L132 505Q140 505 145 510Q150 515 150 522L150 525L140 525Q123 525 111.50 536.50Q100 548 100 565L100 585Q100 601 111.50 613Q123 625 140 625L160 625Q177 625 188.50 613Q200 601 200 585L200 542Z"  horiz-adv-x="300" vert-adv-y="1000"  />

      
      <glyph glyph-name="uni28" unicode="&#x28;" d="M250 774Q188 774 144 730.50Q100 687 100 624L100 24Q100-38 144-82Q188-126 250-126L350-126L350-26L270-26Q241-26 220.50-5.50Q200 15 200 44L200 604Q200 634 220.50 654Q241 674 270 674L350 674L350 774L250 774Z"  horiz-adv-x="450" vert-adv-y="1000"  />

      
      <glyph glyph-name="uni29" unicode="&#x29;" d="M200 774Q262 774 306 730.50Q350 687 350 624L350 24Q350-38 306-82Q262-126 200-126L100-126L100-26L180-26Q209-26 229.50-5.50Q250 15 250 44L250 604Q250 634 229.50 654Q209 674 180 674L100 674L100 774L200 774Z"  horiz-adv-x="450" vert-adv-y="1000"  />

      
      <glyph glyph-name="uni2a" unicode="&#x2a;" d="M176 577L176 630L226 630L226 577L273 610L302 569L244 529L302 489L273 448L226 481L226 428L176 428L176 481L129 448L100 489L157 529L100 569L129 610L176 577Z"  horiz-adv-x="401" vert-adv-y="1000"  />

      
      <glyph glyph-name="uni2b" unicode="&#x2b;" d="M100 274L100 374L225 374L225 500L325 500L325 374L450 374L450 274L325 274L325 150L225 150L225 274L100 274Z"  horiz-adv-x="550" vert-adv-y="1000"  />

      
      <glyph glyph-name="uni2c" unicode="&#x2c;" d="M200 42Q200 13 181-6.50Q162-26 132-26L132 4Q140 4 145 9Q150 14 150 22L150 24L140 24Q123 24 111.50 35.50Q100 47 100 64L100 84Q100 101 111.50 112.50Q123 124 140 124L160 124Q177 124 188.50 112.50Q200 101 200 84L200 42Z"  horiz-adv-x="300" vert-adv-y="1000"  />

      
      <glyph glyph-name="uni2d" unicode="&#x2d;" d="M100 274L100 374L450 374L450 274L100 274Z"  horiz-adv-x="550" vert-adv-y="1000"  />

      
      <glyph glyph-name="uni2e" unicode="&#x2e;" d="M200 84L200 64Q200 47 188.50 35.50Q177 24 160 24L140 24Q123 24 111.50 35.50Q100 47 100 64L100 84Q100 101 111.50 112.50Q123 124 140 124L160 124Q177 124 188.50 112.50Q200 101 200 84Z"  horiz-adv-x="300" vert-adv-y="1000"  />

      
      <glyph glyph-name="uni2f" unicode="&#x2f;" d="M210 24L100 24L380 624L490 624L210 24Z"  horiz-adv-x="590" vert-adv-y="1000"  />

      
      <glyph glyph-name="uni30" unicode="&#x30;" d="M300 624Q341 624 370.50 595Q400 566 400 524L400 124Q400 83 370.50 53.50Q341 24 300 24L200 24Q159 24 129.50 53.50Q100 83 100 124L100 524Q100 566 129.50 595Q159 624 200 624L300 624M300 500Q300 510 292.50 517Q285 524 275 524L225 524Q215 524 207.50 517Q200 510 200 500L200 150Q200 139 207.50 131.50Q215 124 225 124L275 124Q285 124 292.50 131.50Q300 139 300 150L300 500Z"  horiz-adv-x="500" vert-adv-y="1000"  />

      
      <glyph glyph-name="uni31" unicode="&#x31;" d="M200 124L200 500Q200 510 192.50 517Q185 524 175 524L100 524L100 624L200 624Q241 624 270.50 595Q300 566 300 524L300 124L400 124L400 24L100 24L100 124L200 124Z"  horiz-adv-x="500" vert-adv-y="1000"  />

      
      <glyph glyph-name="uni32" unicode="&#x32;" d="M400 24L100 24Q100 94 120.50 152Q141 210 170.50 249Q200 288 229.50 322.50Q259 357 279.50 395.50Q300 434 300 474L300 500Q300 510 292.50 517Q285 524 275 524L225 524Q215 524 207.50 517Q200 510 200 500L200 474L100 474L100 524Q100 566 129.50 595Q159 624 200 624L300 624Q341 624 370.50 595Q400 566 400 525L400 474Q400 433 378.50 386.50Q357 340 329 304Q301 268 268 217.50Q235 167 219 124L400 124L400 24Z"  horiz-adv-x="500" vert-adv-y="1000"  />

      
      <glyph glyph-name="uni33" unicode="&#x33;" d="M275 274L200 274L200 374L275 374Q285 374 292.50 381.50Q300 389 300 400L300 500Q300 510 292.50 517Q285 524 275 524L225 524Q215 524 207.50 517Q200 510 200 500L200 474L100 474L100 524Q100 566 129.50 595Q159 624 200 624L300 624Q341 624 370.50 595Q400 566 400 524L400 400Q400 358 375 324Q400 291 400 250L400 124Q400 83 370.50 53.50Q341 24 300 24L200 24Q159 24 129.50 53.50Q100 83 100 124L100 174L200 174L200 150Q200 139 207.50 131.50Q215 124 225 124L275 124Q285 124 292.50 131.50Q300 139 300 150L300 250Q300 260 292.50 267Q285 274 275 274Z"  horiz-adv-x="500" vert-adv-y="1000"  />

      
      <glyph glyph-name="uni34" unicode="&#x34;" d="M400 624L400 24L300 24L300 274L200 274Q159 274 129.50 303.50Q100 333 100 374L100 624L200 624L200 400Q200 389 207.50 381.50Q215 374 225 374L300 374L300 624L400 624Z"  horiz-adv-x="500" vert-adv-y="1000"  />

      
      <glyph glyph-name="uni35" unicode="&#x35;" d="M105 524Q105 566 134.50 595Q164 624 205 624L380 624L380 524L225 524Q215 524 207.50 517Q200 510 200 500L200 424L300 424Q341 424 370.50 395Q400 366 400 324L400 124Q400 83 370.50 53.50Q341 24 300 24L200 24Q159 24 129.50 53.50Q100 83 100 124L100 224L200 224L200 150Q200 139 207.50 131.50Q215 124 225 124L275 124Q285 124 292.50 131.50Q300 139 300 150L300 300Q300 310 292.50 317Q285 324 275 324L105 324L105 524Z"  horiz-adv-x="500" vert-adv-y="1000"  />

      
      <glyph glyph-name="uni36" unicode="&#x36;" d="M300 474L300 500Q300 510 292.50 517Q285 524 275 524L225 524Q215 524 207.50 517Q200 510 200 500L200 374L300 374Q341 374 370.50 345Q400 316 400 274L400 124Q400 83 370.50 53.50Q341 24 300 24L200 24Q159 24 129.50 53.50Q100 83 100 124L100 524Q100 566 129.50 595Q159 624 200 624L300 624Q341 624 370.50 595Q400 566 400 524L400 474L300 474M300 250Q300 260 292.50 267Q285 274 275 274L200 274L200 150Q200 139 207.50 131.50Q215 124 225 124L275 124Q285 124 292.50 131.50Q300 139 300 150L300 250Z"  horiz-adv-x="500" vert-adv-y="1000"  />

      
      <glyph glyph-name="uni37" unicode="&#x37;" d="M100 624L400 624L400 518L230 24L124 24L297 524L100 524L100 624Z"  horiz-adv-x="500" vert-adv-y="1000"  />

      
      <glyph glyph-name="uni38" unicode="&#x38;" d="M225 274L275 274L225 274M125 324Q100 358 100 400L100 524Q100 566 129.50 595Q159 624 200 624L300 624Q341 624 370.50 595Q400 566 400 524L400 400Q400 358 375 324Q400 291 400 250L400 124Q400 83 370.50 53.50Q341 24 300 24L200 24Q159 24 129.50 53.50Q100 83 100 124L100 250Q100 291 125 324M300 250Q300 260 292.50 267Q285 274 275 274L225 274Q215 274 207.50 267Q200 260 200 250L200 150Q200 139 207.50 131.50Q215 124 225 124L275 124Q285 124 292.50 131.50Q300 139 300 150L300 250M275 374Q285 374 292.50 381.50Q300 389 300 400L300 500Q300 510 292.50 517Q285 524 275 524L225 524Q215 524 207.50 517Q200 510 200 500L200 400Q200 389 207.50 381.50Q215 374 225 374L275 374Z"  horiz-adv-x="500" vert-adv-y="1000"  />

      
      <glyph glyph-name="uni39" unicode="&#x39;" d="M200 174L200 150Q200 139 207.50 131.50Q215 124 225 124L275 124Q285 124 292.50 131.50Q300 139 300 150L300 274L200 274Q159 274 129.50 303.50Q100 333 100 374L100 524Q100 566 129.50 595Q159 624 200 624L300 624Q341 624 370.50 595Q400 566 400 524L400 124Q400 83 370.50 53.50Q341 24 300 24L200 24Q159 24 129.50 53.50Q100 83 100 124L100 174L200 174M200 400Q200 389 207.50 381.50Q215 374 225 374L300 374L300 500Q300 510 292.50 517Q285 524 275 524L225 524Q215 524 207.50 517Q200 510 200 500L200 400Z"  horiz-adv-x="500" vert-adv-y="1000"  />

      
      <glyph glyph-name="uni3a" unicode="&#x3a;" d="M200 256L200 236Q200 219 188.50 207.50Q177 196 160 196L140 196Q123 196 111.50 207.50Q100 219 100 236L100 256Q100 273 111.50 284.50Q123 296 140 296L160 296Q177 296 188.50 284.50Q200 273 200 256M200 415L200 395Q200 378 188.50 366.50Q177 355 160 355L140 355Q123 355 111.50 366.50Q100 378 100 395L100 415Q100 432 111.50 443.50Q123 455 140 455L160 455Q177 455 188.50 443.50Q200 432 200 415Z"  horiz-adv-x="300" vert-adv-y="1000"  />

      
      <glyph glyph-name="uni3b" unicode="&#x3b;" d="M200 214Q200 185 181 165.50Q162 146 132 146L132 176Q140 176 145 181Q150 186 150 194L150 196L140 196Q123 196 111.50 207.50Q100 219 100 236L100 256Q100 273 111.50 284.50Q123 296 140 296L160 296Q177 296 188.50 284.50Q200 273 200 256L200 214M200 415L200 395Q200 378 188.50 366.50Q177 355 160 355L140 355Q123 355 111.50 366.50Q100 378 100 395L100 415Q100 432 111.50 443.50Q123 455 140 455L160 455Q177 455 188.50 443.50Q200 432 200 415Z"  horiz-adv-x="300" vert-adv-y="1000"  />

      
      <glyph glyph-name="uni3c" unicode="&#x3c;" d="M282 542L282 464L165 324L282 185L282 107L100 324L282 542Z"  horiz-adv-x="382" vert-adv-y="1000"  />

      
      <glyph glyph-name="uni3d" unicode="&#x3d;" d="M100 196L100 296L450 296L450 196L100 196M100 357L100 457L450 457L450 357L100 357Z"  horiz-adv-x="550" vert-adv-y="1000"  />

      
      <glyph glyph-name="uni3e" unicode="&#x3e;" d="M100 542L100 464L217 324L100 185L100 107L282 324L100 542Z"  horiz-adv-x="382" vert-adv-y="1000"  />

      
      <glyph glyph-name="uni3f" unicode="&#x3f;" d="M250 60L250 40Q250 23 238.50 11.50Q227 0 210 0L190 0Q173 0 161.50 11.50Q150 23 150 40L150 60Q150 77 161.50 88.50Q173 100 190 100L210 100Q227 100 238.50 88.50Q250 77 250 60M300 499L300 524Q300 534 292.50 541.50Q285 549 275 549L225 549Q215 549 207.50 541.50Q200 534 200 524L200 449L100 449L100 549Q100 590 129.50 619.50Q159 649 200 649L300 649Q341 649 370.50 619.50Q400 590 400 549L400 499Q400 455 384.50 416.50Q369 378 347 348.50Q325 319 303 288Q281 257 265.50 213.50Q250 170 250 119L150 119Q150 185 165.50 234.50Q181 284 203 313Q225 342 247 367.50Q269 393 284.50 425.50Q300 458 300 499Z"  horiz-adv-x="500" vert-adv-y="1000"  />

      
      <glyph glyph-name="uni40" unicode="&#x40;" d="M300 524Q259 524 229.50 495Q200 466 200 424L200 224Q200 183 229.50 153.50Q259 124 300 124L665 124Q680 124 690 114Q700 104 700 90L700 60Q700 45 690 34.50Q680 24 665 24L300 24Q217 24 158.50 83Q100 142 100 224L100 424Q100 507 158.50 565.50Q217 624 300 624L500 624Q583 624 641.50 565.50Q700 507 700 424L700 274Q700 233 670.50 203.50Q641 174 600 174L550 174Q523 174 500 188Q477 174 450 174L350 174Q309 174 279.50 203.50Q250 233 250 274L250 374Q250 416 279.50 445Q309 474 350 474L450 474Q491 474 520.50 445Q550 416 550 374L550 300Q550 289 557.50 281.50Q565 274 575 274Q585 274 592.50 281.50Q600 289 600 300L600 424Q600 466 570.50 495Q541 524 500 524L300 524M375 374Q365 374 357.50 367Q350 360 350 350L350 300Q350 289 357.50 281.50Q365 274 375 274L425 274Q435 274 442.50 281.50Q450 289 450 300L450 350Q450 360 442.50 367Q435 374 425 374L375 374Z"  horiz-adv-x="800" vert-adv-y="1000"  />

      
      <glyph glyph-name="uni41" unicode="&#x41;" d="M200 24L100 24L100 524Q100 566 129.50 595Q159 624 200 624L300 624Q341 624 370.50 595Q400 566 400 524L400 24L300 24L300 224L200 224L200 24M300 324L300 500Q300 510 292.50 517Q285 524 275 524L225 524Q215 524 207.50 517Q200 510 200 500L200 324L300 324Z"  horiz-adv-x="500" vert-adv-y="1000"  />

      
      <glyph glyph-name="uni42" unicode="&#x42;" d="M100 24L100 624L290 624Q331 624 360.50 595Q390 566 390 524L390 400Q390 358 365 324Q390 291 390 250L390 124Q390 83 360.50 53.50Q331 24 290 24L200 24L100 24M255 274L200 274L200 124L265 124Q275 124 282.50 131.50Q290 139 290 150L290 240Q290 254 279.50 264Q269 274 255 274M200 524L200 374L255 374Q269 374 279.50 384.50Q290 395 290 410L290 500Q290 510 282.50 517Q275 524 265 524L200 524Z"  horiz-adv-x="490" vert-adv-y="1000"  />

      
      <glyph glyph-name="uni43" unicode="&#x43;" d="M400 174L400 124Q400 83 370.50 53.50Q341 24 300 24L200 24Q159 24 129.50 53.50Q100 83 100 124L100 524Q100 566 129.50 595Q159 624 200 624L300 624Q341 624 370.50 595Q400 566 400 524L400 474L300 474L300 500Q300 510 292.50 517Q285 524 275 524L225 524Q215 524 207.50 517Q200 510 200 500L200 150Q200 139 207.50 131.50Q215 124 225 124L275 124Q285 124 292.50 131.50Q300 139 300 150L300 174L400 174Z"  horiz-adv-x="500" vert-adv-y="1000"  />

      
      <glyph glyph-name="uni44" unicode="&#x44;" d="M400 524L400 124Q400 83 370.50 53.50Q341 24 300 24L100 24L100 624L300 624Q341 624 370.50 595Q400 566 400 524M200 524L200 124L275 124Q285 124 292.50 131.50Q300 139 300 150L300 500Q300 510 292.50 517Q285 524 275 524L200 524Z"  horiz-adv-x="500" vert-adv-y="1000"  />

      
      <glyph glyph-name="uni45" unicode="&#x45;" d="M100 624L350 624L350 524L200 524L200 374L320 374L320 274L200 274L200 124L350 124L350 24L100 24L100 624Z"  horiz-adv-x="450" vert-adv-y="1000"  />

      
      <glyph glyph-name="uni46" unicode="&#x46;" d="M100 624L350 624L350 524L200 524L200 374L320 374L320 274L200 274L200 24L100 24L100 624Z"  horiz-adv-x="430" vert-adv-y="1000"  />

      
      <glyph glyph-name="uni47" unicode="&#x47;" d="M245 374L400 374L400 124Q400 83 370.50 53.50Q341 24 300 24L250 24L200 24Q159 24 129.50 53.50Q100 83 100 124L100 524Q100 566 129.50 595Q159 624 200 624L300 624Q341 624 370.50 595Q400 566 400 524L400 474L300 474L300 500Q300 510 292.50 517Q285 524 275 524L225 524Q215 524 207.50 517Q200 510 200 500L200 150Q200 139 207.50 131.50Q215 124 225 124L275 124Q285 124 292.50 131.50Q300 139 300 150L300 274L245 274L245 374Z"  horiz-adv-x="500" vert-adv-y="1000"  />

      
      <glyph glyph-name="uni48" unicode="&#x48;" d="M100 624L200 624L200 374L300 374L300 624L400 624L400 24L300 24L300 274L200 274L200 24L100 24L100 624Z"  horiz-adv-x="500" vert-adv-y="1000"  />

      
      <glyph glyph-name="uni49" unicode="&#x49;" d="M100 24L100 624L200 624L200 24L100 24Z"  horiz-adv-x="300" vert-adv-y="1000"  />

      
      <glyph glyph-name="uni4a" unicode="&#x4a;" d="M400 624L400 124Q400 83 370.50 53.50Q341 24 300 24L200 24Q159 24 129.50 53.50Q100 83 100 124L100 174L200 174L200 150Q200 139 207.50 131.50Q215 124 225 124L275 124Q285 124 292.50 131.50Q300 139 300 150L300 624L400 624Z"  horiz-adv-x="500" vert-adv-y="1000"  />

      
      <glyph glyph-name="uni4b" unicode="&#x4b;" d="M408 24L300 24L209 274L200 274L200 24L100 24L100 624L200 624L200 374L209 374L299 620L407 620L299 324L408 24Z"  horiz-adv-x="473" vert-adv-y="1000"  />

      
      <glyph glyph-name="uni4c" unicode="&#x4c;" d="M100 624L200 624L200 124L350 124L350 24L100 24L100 624Z"  horiz-adv-x="450" vert-adv-y="1000"  />

      
      <glyph glyph-name="uni4d" unicode="&#x4d;" d="M500 624L500 24L400 24L400 352L335 174L265 174L200 352L200 24L100 24L100 624L207 624L300 370L393 624L500 624Z"  horiz-adv-x="600" vert-adv-y="1000"  />

      
      <glyph glyph-name="uni4e" unicode="&#x4e;" d="M319 24L200 352L200 24L100 24L100 624L207 624L320 315L320 624L420 624L420 24L319 24Z"  horiz-adv-x="520" vert-adv-y="1000"  />

      
      <glyph glyph-name="uni4f" unicode="&#x4f;" d="M300 624Q341 624 370.50 595Q400 566 400 524L400 124Q400 83 370.50 53.50Q341 24 300 24L200 24Q159 24 129.50 53.50Q100 83 100 124L100 524Q100 566 129.50 595Q159 624 200 624L300 624M300 500Q300 510 292.50 517Q285 524 275 524L225 524Q215 524 207.50 517Q200 510 200 500L200 150Q200 139 207.50 131.50Q215 124 225 124L275 124Q285 124 292.50 131.50Q300 139 300 150L300 500Z"  horiz-adv-x="500" vert-adv-y="1000"  />

      
      <glyph glyph-name="uni50" unicode="&#x50;" d="M200 24L100 24L100 624L300 624Q341 624 370.50 595Q400 566 400 524L400 349Q400 312 375.50 284Q351 256 315 250L200 249L200 24M300 500Q300 510 292.50 517Q285 524 275 524L200 524L200 349L275 349Q285 349 292.50 356.50Q300 364 300 374L300 500Z"  horiz-adv-x="500" vert-adv-y="1000"  />

      
      <glyph glyph-name="uni51" unicode="&#x51;" d="M209 24L200 24Q159 24 129.50 53Q100 82 100 124L100 524Q100 565 129.50 594.50Q159 624 200 624L300 624Q341 624 370.50 594.50Q400 565 400 524L400 124Q400 87 376.50 59Q353 31 318 25L346-36L236-36L209 24M300 498Q300 509 292.50 516.50Q285 524 275 524L225 524Q215 524 207.50 516.50Q200 509 200 498L200 148Q200 138 207.50 131Q215 124 225 124L275 124Q285 124 292.50 131Q300 138 300 148L300 498Z"  horiz-adv-x="500" vert-adv-y="1000"  />

      
      <glyph glyph-name="uni52" unicode="&#x52;" d="M414 24L306 24L225 249L200 249L200 24L100 24L100 624L300 624Q341 624 370.50 595Q400 566 400 524L400 349Q400 316 380.50 290Q361 264 331 254L414 24M300 500Q300 510 292.50 517Q285 524 275 524L200 524L200 349L275 349Q285 349 292.50 356.50Q300 364 300 374L300 500Z"  horiz-adv-x="512" vert-adv-y="1000"  />

      
      <glyph glyph-name="uni53" unicode="&#x53;" d="M300 210Q300 224 285 238.50Q270 253 248 264.50Q226 276 200 294Q174 312 152 331.50Q130 351 115 383Q100 415 100 454L100 524Q100 566 129.50 595Q159 624 200 624L300 624Q341 624 370.50 595Q400 566 400 524L400 457L300 457L300 500Q300 510 292.50 517Q285 524 275 524L225 524Q215 524 207.50 517Q200 510 200 500L200 454Q200 429 220.50 407.50Q241 386 270.50 368.50Q300 351 329.50 331.50Q359 312 379.50 281Q400 250 400 210L400 124Q400 83 370.50 53.50Q341 24 300 24L200 24Q159 24 129.50 53.50Q100 83 100 124L100 210L200 210L200 150Q200 139 207.50 131.50Q215 124 225 124L275 124Q285 124 292.50 131.50Q300 139 300 150L300 210Z"  horiz-adv-x="500" vert-adv-y="1000"  />

      
      <glyph glyph-name="uni54" unicode="&#x54;" d="M80 624L380 624L380 524L280 524L280 24L180 24L180 524L80 524L80 624Z"  horiz-adv-x="460" vert-adv-y="1000"  />

      
      <glyph glyph-name="uni55" unicode="&#x55;" d="M300 24L200 24Q159 24 129.50 53.50Q100 83 100 124L100 624L200 624L200 150Q200 139 207.50 131.50Q215 124 225 124L275 124Q285 124 292.50 131.50Q300 139 300 150L300 624L400 624L400 124Q400 83 370.50 53.50Q341 24 300 24Z"  horiz-adv-x="500" vert-adv-y="1000"  />

      
      <glyph glyph-name="uni56" unicode="&#x56;" d="M337 24L164 24L90 624L191 624L250 140L310 624L411 624L337 24Z"  horiz-adv-x="500" vert-adv-y="1000"  />

      
      <glyph glyph-name="uni57" unicode="&#x57;" d="M466 241L513 624L614 624L540 24L392 24L352 351L312 24L164 24L90 624L191 624L238 241L285 624L419 624L466 241Z"  horiz-adv-x="703" vert-adv-y="1000"  />

      
      <glyph glyph-name="uni58" unicode="&#x58;" d="M245 433L296 624L400 624L320 324L400 24L296 24L245 216L194 24L90 24L170 324L90 624L194 624L245 433Z"  horiz-adv-x="489" vert-adv-y="1000"  />

      
      <glyph glyph-name="uni59" unicode="&#x59;" d="M400 624L400 374Q400 333 370.50 303.50Q341 274 300 274L300 24L200 24L200 274Q159 274 129.50 303.50Q100 333 100 374L100 624L200 624L200 400Q200 389 207.50 381.50Q215 374 225 374L275 374Q285 374 292.50 381.50Q300 389 300 400L300 624L400 624Z"  horiz-adv-x="500" vert-adv-y="1000"  />

      
      <glyph glyph-name="uni5a" unicode="&#x5a;" d="M405 524L210 124L410 124L410 24L100 24L100 127L294 524L105 524L105 624L405 624L405 524Z"  horiz-adv-x="510" vert-adv-y="1000"  />

      
      <glyph glyph-name="uni5b" unicode="&#x5b;" d="M100 774L100-126L350-126L350-26L200-26L200 674L350 674L350 774L100 774Z"  horiz-adv-x="450" vert-adv-y="1000"  />

      
      <glyph glyph-name="uni5c" unicode="&#x5c;" d="M380 24L490 24L210 624L100 624L380 24Z"  horiz-adv-x="590" vert-adv-y="1000"  />

      
      <glyph glyph-name="uni5d" unicode="&#x5d;" d="M350 774L350-126L100-126L100-26L250-26L250 674L100 674L100 774L350 774Z"  horiz-adv-x="450" vert-adv-y="1000"  />

      
      <glyph glyph-name="uni5e" unicode="&#x5e;" d="M219 826L266 826L385 726L309 726L243 780L178 726L100 726L219 826Z"  horiz-adv-x="485" vert-adv-y="1000"  />

      
      <glyph glyph-name="uni5f" unicode="&#x5f;" d="M100 24L100 124L610 124L610 24L100 24Z"  horiz-adv-x="710" vert-adv-y="1000"  />

      
      <glyph glyph-name="uni60" unicode="&#x60;" d="M219 726L297 726L178 826L100 826L219 726Z"  horiz-adv-x="396" vert-adv-y="1000"  />

      
      <glyph glyph-name="uni61" unicode="&#x61;" d="M200 24L100 24L100 524Q100 566 129.50 595Q159 624 200 624L300 624Q341 624 370.50 595Q400 566 400 524L400 24L300 24L300 224L200 224L200 24M300 324L300 500Q300 510 292.50 517Q285 524 275 524L225 524Q215 524 207.50 517Q200 510 200 500L200 324L300 324Z"  horiz-adv-x="500" vert-adv-y="1000"  />

      
      <glyph glyph-name="uni62" unicode="&#x62;" d="M100 24L100 624L290 624Q331 624 360.50 595Q390 566 390 524L390 400Q390 358 365 324Q390 291 390 250L390 124Q390 83 360.50 53.50Q331 24 290 24L200 24L100 24M255 274L200 274L200 124L265 124Q275 124 282.50 131.50Q290 139 290 150L290 240Q290 254 279.50 264Q269 274 255 274M200 524L200 374L255 374Q269 374 279.50 384.50Q290 395 290 410L290 500Q290 510 282.50 517Q275 524 265 524L200 524Z"  horiz-adv-x="490" vert-adv-y="1000"  />

      
      <glyph glyph-name="uni63" unicode="&#x63;" d="M400 174L400 124Q400 83 370.50 53.50Q341 24 300 24L200 24Q159 24 129.50 53.50Q100 83 100 124L100 524Q100 566 129.50 595Q159 624 200 624L300 624Q341 624 370.50 595Q400 566 400 524L400 474L300 474L300 500Q300 510 292.50 517Q285 524 275 524L225 524Q215 524 207.50 517Q200 510 200 500L200 150Q200 139 207.50 131.50Q215 124 225 124L275 124Q285 124 292.50 131.50Q300 139 300 150L300 174L400 174Z"  horiz-adv-x="500" vert-adv-y="1000"  />

      
      <glyph glyph-name="uni64" unicode="&#x64;" d="M400 524L400 124Q400 83 370.50 53.50Q341 24 300 24L100 24L100 624L300 624Q341 624 370.50 595Q400 566 400 524M200 524L200 124L275 124Q285 124 292.50 131.50Q300 139 300 150L300 500Q300 510 292.50 517Q285 524 275 524L200 524Z"  horiz-adv-x="500" vert-adv-y="1000"  />

      
      <glyph glyph-name="uni65" unicode="&#x65;" d="M100 624L350 624L350 524L200 524L200 374L320 374L320 274L200 274L200 124L350 124L350 24L100 24L100 624Z"  horiz-adv-x="450" vert-adv-y="1000"  />

      
      <glyph glyph-name="uni66" unicode="&#x66;" d="M100 624L350 624L350 524L200 524L200 374L320 374L320 274L200 274L200 24L100 24L100 624Z"  horiz-adv-x="430" vert-adv-y="1000"  />

      
      <glyph glyph-name="uni67" unicode="&#x67;" d="M245 374L400 374L400 124Q400 83 370.50 53.50Q341 24 300 24L250 24L200 24Q159 24 129.50 53.50Q100 83 100 124L100 524Q100 566 129.50 595Q159 624 200 624L300 624Q341 624 370.50 595Q400 566 400 524L400 474L300 474L300 500Q300 510 292.50 517Q285 524 275 524L225 524Q215 524 207.50 517Q200 510 200 500L200 150Q200 139 207.50 131.50Q215 124 225 124L275 124Q285 124 292.50 131.50Q300 139 300 150L300 274L245 274L245 374Z"  horiz-adv-x="500" vert-adv-y="1000"  />

      
      <glyph glyph-name="uni68" unicode="&#x68;" d="M100 624L200 624L200 374L300 374L300 624L400 624L400 24L300 24L300 274L200 274L200 24L100 24L100 624Z"  horiz-adv-x="500" vert-adv-y="1000"  />

      
      <glyph glyph-name="uni69" unicode="&#x69;" d="M100 24L100 624L200 624L200 24L100 24Z"  horiz-adv-x="300" vert-adv-y="1000"  />

      
      <glyph glyph-name="uni6a" unicode="&#x6a;" d="M400 624L400 124Q400 83 370.50 53.50Q341 24 300 24L200 24Q159 24 129.50 53.50Q100 83 100 124L100 174L200 174L200 150Q200 139 207.50 131.50Q215 124 225 124L275 124Q285 124 292.50 131.50Q300 139 300 150L300 624L400 624Z"  horiz-adv-x="500" vert-adv-y="1000"  />

      
      <glyph glyph-name="uni6b" unicode="&#x6b;" d="M408 24L300 24L209 274L200 274L200 24L100 24L100 624L200 624L200 374L209 374L299 620L407 620L299 324L408 24Z"  horiz-adv-x="473" vert-adv-y="1000"  />

      
      <glyph glyph-name="uni6c" unicode="&#x6c;" d="M100 624L200 624L200 124L350 124L350 24L100 24L100 624Z"  horiz-adv-x="450" vert-adv-y="1000"  />

      
      <glyph glyph-name="uni6d" unicode="&#x6d;" d="M500 624L500 24L400 24L400 352L335 174L265 174L200 352L200 24L100 24L100 624L207 624L300 370L393 624L500 624Z"  horiz-adv-x="600" vert-adv-y="1000"  />

      
      <glyph glyph-name="uni6e" unicode="&#x6e;" d="M319 24L200 352L200 24L100 24L100 624L207 624L320 315L320 624L420 624L420 24L319 24Z"  horiz-adv-x="520" vert-adv-y="1000"  />

      
      <glyph glyph-name="uni6f" unicode="&#x6f;" d="M300 624Q341 624 370.50 595Q400 566 400 524L400 124Q400 83 370.50 53.50Q341 24 300 24L200 24Q159 24 129.50 53.50Q100 83 100 124L100 524Q100 566 129.50 595Q159 624 200 624L300 624M300 500Q300 510 292.50 517Q285 524 275 524L225 524Q215 524 207.50 517Q200 510 200 500L200 150Q200 139 207.50 131.50Q215 124 225 124L275 124Q285 124 292.50 131.50Q300 139 300 150L300 500Z"  horiz-adv-x="500" vert-adv-y="1000"  />

      
      <glyph glyph-name="uni70" unicode="&#x70;" d="M200 24L100 24L100 624L300 624Q341 624 370.50 595Q400 566 400 524L400 349Q400 312 375.50 284Q351 256 315 250L200 249L200 24M300 500Q300 510 292.50 517Q285 524 275 524L200 524L200 349L275 349Q285 349 292.50 356.50Q300 364 300 374L300 500Z"  horiz-adv-x="500" vert-adv-y="1000"  />

      
      <glyph glyph-name="uni71" unicode="&#x71;" d="M209 24L200 24Q159 24 129.50 53Q100 82 100 124L100 524Q100 565 129.50 594.50Q159 624 200 624L300 624Q341 624 370.50 594.50Q400 565 400 524L400 124Q400 87 376.50 59Q353 31 318 25L346-36L236-36L209 24M300 498Q300 509 292.50 516.50Q285 524 275 524L225 524Q215 524 207.50 516.50Q200 509 200 498L200 148Q200 138 207.50 131Q215 124 225 124L275 124Q285 124 292.50 131Q300 138 300 148L300 498Z"  horiz-adv-x="500" vert-adv-y="1000"  />

      
      <glyph glyph-name="uni72" unicode="&#x72;" d="M414 24L306 24L225 249L200 249L200 24L100 24L100 624L300 624Q341 624 370.50 595Q400 566 400 524L400 349Q400 316 380.50 290Q361 264 331 254L414 24M300 500Q300 510 292.50 517Q285 524 275 524L200 524L200 349L275 349Q285 349 292.50 356.50Q300 364 300 374L300 500Z"  horiz-adv-x="512" vert-adv-y="1000"  />

      
      <glyph glyph-name="uni73" unicode="&#x73;" d="M300 210Q300 224 285 238.50Q270 253 248 264.50Q226 276 200 294Q174 312 152 331.50Q130 351 115 383Q100 415 100 454L100 524Q100 566 129.50 595Q159 624 200 624L300 624Q341 624 370.50 595Q400 566 400 524L400 457L300 457L300 500Q300 510 292.50 517Q285 524 275 524L225 524Q215 524 207.50 517Q200 510 200 500L200 454Q200 429 220.50 407.50Q241 386 270.50 368.50Q300 351 329.50 331.50Q359 312 379.50 281Q400 250 400 210L400 124Q400 83 370.50 53.50Q341 24 300 24L200 24Q159 24 129.50 53.50Q100 83 100 124L100 210L200 210L200 150Q200 139 207.50 131.50Q215 124 225 124L275 124Q285 124 292.50 131.50Q300 139 300 150L300 210Z"  horiz-adv-x="500" vert-adv-y="1000"  />

      
      <glyph glyph-name="uni74" unicode="&#x74;" d="M80 624L380 624L380 524L280 524L280 24L180 24L180 524L80 524L80 624Z"  horiz-adv-x="460" vert-adv-y="1000"  />

      
      <glyph glyph-name="uni75" unicode="&#x75;" d="M300 24L200 24Q159 24 129.50 53.50Q100 83 100 124L100 624L200 624L200 150Q200 139 207.50 131.50Q215 124 225 124L275 124Q285 124 292.50 131.50Q300 139 300 150L300 624L400 624L400 124Q400 83 370.50 53.50Q341 24 300 24Z"  horiz-adv-x="500" vert-adv-y="1000"  />

      
      <glyph glyph-name="uni76" unicode="&#x76;" d="M337 24L164 24L90 624L191 624L250 140L310 624L411 624L337 24Z"  horiz-adv-x="500" vert-adv-y="1000"  />

      
      <glyph glyph-name="uni77" unicode="&#x77;" d="M466 241L513 624L614 624L540 24L392 24L352 351L312 24L164 24L90 624L191 624L238 241L285 624L419 624L466 241Z"  horiz-adv-x="703" vert-adv-y="1000"  />

      
      <glyph glyph-name="uni78" unicode="&#x78;" d="M245 433L296 624L400 624L320 324L400 24L296 24L245 216L194 24L90 24L170 324L90 624L194 624L245 433Z"  horiz-adv-x="489" vert-adv-y="1000"  />

      
      <glyph glyph-name="uni79" unicode="&#x79;" d="M400 624L400 374Q400 333 370.50 303.50Q341 274 300 274L300 24L200 24L200 274Q159 274 129.50 303.50Q100 333 100 374L100 624L200 624L200 400Q200 389 207.50 381.50Q215 374 225 374L275 374Q285 374 292.50 381.50Q300 389 300 400L300 624L400 624Z"  horiz-adv-x="500" vert-adv-y="1000"  />

      
      <glyph glyph-name="uni7a" unicode="&#x7a;" d="M405 524L210 124L410 124L410 24L100 24L100 127L294 524L105 524L105 624L405 624L405 524Z"  horiz-adv-x="510" vert-adv-y="1000"  />

      
      <glyph glyph-name="uni7b" unicode="&#x7b;" d="M262 324Q275 348 275 374L275 650Q275 660 282.50 667Q290 674 300 674L425 674L425 774L275 774Q234 774 204.50 745Q175 716 175 674L175 400Q175 389 167.50 381.50Q160 374 150 374L100 374L100 274L150 274Q160 274 167.50 267Q175 260 175 250L175-26Q175-67 204.50-96.50Q234-126 275-126L425-126L425-26L300-26Q290-26 282.50-18.50Q275-11 275 0L275 274Q275 301 262 324Z"  horiz-adv-x="525" vert-adv-y="1000"  />

      
      <glyph glyph-name="uni7c" unicode="&#x7c;" d="M100-126L100 774L200 774L200-126L100-126Z"  horiz-adv-x="300" vert-adv-y="1000"  />

      
      <glyph glyph-name="uni7d" unicode="&#x7d;" d="M263 324Q250 348 250 374L250 650Q250 660 242.50 667Q235 674 225 674L100 674L100 774L250 774Q291 774 320.50 745Q350 716 350 674L350 400Q350 389 357.50 381.50Q365 374 375 374L425 374L425 274L375 274Q365 274 357.50 267Q350 260 350 250L350-26Q350-67 320.50-96.50Q291-126 250-126L100-126L100-26L225-26Q235-26 242.50-18.50Q250-11 250 0L250 274Q250 301 263 324Z"  horiz-adv-x="525" vert-adv-y="1000"  />

      
      <glyph glyph-name="uni7e" unicode="&#x7e;" d="M100 312L154 366Q196 408 253 408Q310 408 352 366Q380 339 392 327Q406 313 425 313Q444 313 458 327L527 395L581 335L524 280Q482 237 425 237Q368 237 326 279Q320 285 306.50 298.50Q293 312 286 319Q272 333 253 333Q234 333 220 319L154 253L100 312Z"  horiz-adv-x="680" vert-adv-y="1000"  />

      
      <glyph glyph-name="unia1" unicode="&#xa1;" d="M100 565L100 585Q100 601 111.50 613Q123 625 140 625L160 625Q177 625 188.50 613Q200 601 200 585L200 565Q200 548 188.50 536.50Q177 525 160 525L140 525Q123 525 111.50 536.50Q100 548 100 565M100 24L100 439L200 439L200 24L100 24Z"  horiz-adv-x="300" vert-adv-y="1000"  />

      
      <glyph glyph-name="unia2" unicode="&#xa2;" d="M200 524L200 624L300 624L300 524Q341 524 370.50 494.50Q400 465 400 424L400 374L300 374L300 399Q300 409 292.50 416.50Q285 424 275 424L225 424Q215 424 207.50 416.50Q200 409 200 399L200 250Q200 239 207.50 231.50Q215 224 225 224L275 224Q285 224 292.50 231.50Q300 239 300 250L300 274L400 274L400 224Q400 183 370.50 153.50Q341 124 300 124L300 24L200 24L200 124Q159 124 129.50 153.50Q100 183 100 224L100 424Q100 465 129.50 494.50Q159 524 200 524Z"  horiz-adv-x="500" vert-adv-y="1000"  />

      
      <glyph glyph-name="unia3" unicode="&#xa3;" d="M100 119L105 119Q134 119 157 152Q180 185 180 219L180 269L105 269L105 369L180 369L180 530Q180 572 209.50 601Q239 630 280 630L380 630Q421 630 450.50 601Q480 572 480 530L480 480L380 480L380 505Q380 516 372.50 523Q365 530 355 530L305 530Q295 530 287.50 523Q280 516 280 505L280 369L430 369L430 269L280 269L280 219Q280 168 253 119L480 119L480 19L100 19L100 119Z"  horiz-adv-x="580" vert-adv-y="1000"  />

      
      <glyph glyph-name="unia4" unicode="&#xa4;" d="M100 504L147 551L199 500Q237 524 283 524L363 524Q412 524 453 497L507 551L554 504L499 449Q523 411 523 364L523 284Q523 238 499 200L554 145L507 98L453 152Q412 124 363 124L283 124Q237 124 199 149L147 98L100 145L151 195Q123 236 123 284L123 364Q123 413 151 454L100 504M377 458L270 458Q237 458 213.50 434.50Q190 411 190 378L190 271Q190 238 213.50 214.50Q237 191 270 191L377 191Q410 191 433.50 214.50Q457 238 457 271L457 378Q457 411 433.50 434.50Q410 458 377 458Z"  horiz-adv-x="653" vert-adv-y="1000"  />

      
      <glyph glyph-name="unia5" unicode="&#xa5;" d="M420 624L420 374Q420 333 390.50 303.50Q361 274 320 274L320 259L435 259L435 209L320 209L320 188L435 188L435 138L320 138L320 24L220 24L220 138L100 138L100 188L220 188L220 209L100 209L100 259L220 259L220 274Q179 274 149.50 303.50Q120 333 120 374L120 624L220 624L220 400Q220 389 227.50 381.50Q235 374 245 374L295 374Q305 374 312.50 381.50Q320 389 320 400L320 624L420 624Z"  horiz-adv-x="535" vert-adv-y="1000"  />

      
      <glyph glyph-name="unia6" unicode="&#xa6;" d="M150 352L100 352L100 582L150 582L150 352M150 70L100 70L100 300L150 300L150 70Z"  horiz-adv-x="250" vert-adv-y="1000"  />

      
      <glyph glyph-name="unia7" unicode="&#xa7;" d="M126 433Q100 465 100 504L100 554Q100 583 120.50 603.50Q141 624 171 624L241 624Q271 624 291.50 603.50Q312 583 312 554L312 506L241 506L241 536Q241 543 236 548.50Q231 554 224 554L188 554Q181 554 176 548.50Q171 543 171 536L171 504Q171 475 211 449L212 449L212 448Q216 446 237 433Q258 420 266 413.50Q274 407 287.50 393.50Q301 380 306.50 365Q312 350 312 331L312 271Q312 239 288 218Q312 191 312 155L312 95Q312 66 291.50 45Q271 24 241 24L171 24Q141 24 120.50 45Q100 66 100 95L100 155L171 155L171 113Q171 106 176 100.50Q181 95 188 95L224 95Q231 95 236 100.50Q241 106 241 113L241 155Q241 168 226.50 180.50Q212 193 191.50 206Q171 219 150 234.50Q129 250 114.50 274.50Q100 299 100 329L100 378Q100 412 126 433M196 378L188 378Q181 378 176 373Q171 368 171 360L171 329Q171 299 214 271L224 271Q231 271 236 276Q241 281 241 289L241 331Q241 343 230 353Q219 363 196 378Z"  horiz-adv-x="412" vert-adv-y="1000"  />

      
      <glyph glyph-name="unia8" unicode="&#xa8;" d="M100 756L100 771Q100 783 109 792Q118 801 130 801L145 801Q158 801 166.50 792Q175 783 175 771L175 756Q175 743 166.50 734.50Q158 726 145 726L130 726Q118 726 109 734.50Q100 743 100 756M196 756L196 771Q196 783 204.50 792Q213 801 226 801L241 801Q253 801 262 792Q271 783 271 771L271 756Q271 743 262 734.50Q253 726 241 726L226 726Q213 726 204.50 734.50Q196 743 196 756Z"  horiz-adv-x="371" vert-adv-y="1000"  />

      
      <glyph glyph-name="unia9" unicode="&#xa9;" d="M340 524Q406 524 453 477.50Q500 431 500 364L500 284Q500 218 453 171Q406 124 340 124L260 124Q194 124 147 171Q100 218 100 284L100 364Q100 431 147 477.50Q194 524 260 524L340 524M353 458L247 458Q214 458 190.50 434.50Q167 411 167 378L167 271Q167 238 190.50 214.50Q214 191 247 191L353 191Q386 191 409.50 214.50Q433 238 433 271L433 378Q433 411 409.50 434.50Q386 458 353 458M380 351L327 351L327 364Q327 370 323 374Q319 378 313 378L287 378Q281 378 277 374Q273 370 273 364L273 285Q273 279 277 275.50Q281 272 287 272L313 272Q319 272 323 275.50Q327 279 327 285L327 298L380 298L380 272Q380 249 364.50 233.50Q349 218 327 218L273 218Q251 218 235.50 233.50Q220 249 220 272L220 378Q220 400 235.50 415.50Q251 431 273 431L327 431Q349 431 364.50 415.50Q380 400 380 378L380 351Z"  horiz-adv-x="600" vert-adv-y="1000"  />

      
      <glyph glyph-name="uniab" unicode="&#xab;" d="M397 542L397 464L280 324L397 185L397 107L215 324L397 542M282 542L282 464L165 324L282 185L282 107L100 324L282 542Z"  horiz-adv-x="497" vert-adv-y="1000"  />

      
      <glyph glyph-name="uniad" unicode="&#xad;" d="M100 274L100 374L450 374L450 274L100 274Z"  horiz-adv-x="550" vert-adv-y="1000"  />

      
      <glyph glyph-name="uniae" unicode="&#xae;" d="M242 474Q281 474 309 446.50Q337 419 337 380L337 269Q337 230 309 202Q281 174 242 174L195 174Q156 174 128 202Q100 230 100 269L100 380Q100 419 128 446.50Q156 474 195 474L242 474M298 388Q298 407 284 421Q270 435 250 435L187 435Q167 435 153.50 421Q140 407 140 388L140 261Q140 242 153.50 228Q167 214 187 214L250 214Q270 214 284 228Q298 242 298 261L298 388M206 230L174 230L174 419L237 419Q250 419 259.50 410Q269 401 269 388L269 340Q269 329 261 320Q253 311 242 309L279 230L244 230L207 309L206 309L206 230M237 380Q237 383 234.50 385.50Q232 388 229 388L206 388L206 340L229 340Q232 340 234.50 342.50Q237 345 237 348L237 380Z"  horiz-adv-x="437" vert-adv-y="1000"  />

      
      <glyph glyph-name="uniaf" unicode="&#xaf;" d="M100 726L100 776L400 776L400 726L100 726Z"  horiz-adv-x="500" vert-adv-y="1000"  />

      
      <glyph glyph-name="unib0" unicode="&#xb0;" d="M129.50 896.50Q129.50 896.50 144.25 911.25Q159 926 200 926Q241 926 270.50 896.50Q300 867 300 825.50Q300 784 270.50 755Q241 726 200 726Q159 726 129.50 755Q100 784 100 825.50Q100 867 129.50 896.50M235.50 861Q235.50 861 228.25 868.50Q221 876 200 876Q179 876 164.50 861Q150 846 150 825.50Q150 805 164.50 790.50Q179 776 200 776Q221 776 235.50 790.50Q250 805 250 825.50Q250 846 235.50 861Z"  horiz-adv-x="400" vert-adv-y="1000"  />

      
      <glyph glyph-name="unib1" unicode="&#xb1;" d="M325 210L225 210L225 334L100 334L100 434L225 434L225 560L325 560L325 434L450 434L450 334L325 334L325 210M100 95L100 195L450 195L450 95L100 95Z"  horiz-adv-x="550" vert-adv-y="1000"  />

      
      <glyph glyph-name="unib4" unicode="&#xb4;" d="M178 726L100 726L219 826L297 826L178 726Z"  horiz-adv-x="396" vert-adv-y="1000"  />

      
      <glyph glyph-name="unib7" unicode="&#xb7;" d="M100 317L100 332Q100 345 109 353.50Q118 362 130 362L145 362Q158 362 166.50 353.50Q175 345 175 332L175 317Q175 305 166.50 296Q158 287 145 287L130 287Q118 287 109 296Q100 305 100 317Z"  horiz-adv-x="275" vert-adv-y="1000"  />

      
      <glyph glyph-name="unib8" unicode="&#xb8;" d="M109-65L183 62L226 37L196-15L220-15Q251-15 273-37Q295-59 295-90.50Q295-122 273-143.50Q251-165 220-165L100-165L100-115L220-115Q230-115 237.50-108Q245-101 245-90.50Q245-80 237.50-72.50Q230-65 220-65L145-65L109-65Z"  horiz-adv-x="395" vert-adv-y="1000"  />

      
      <glyph glyph-name="uniba" unicode="&#xba;" d="M129.50 896.50Q129.50 896.50 144.25 911.25Q159 926 200 926Q241 926 270.50 896.50Q300 867 300 825.50Q300 784 270.50 755Q241 726 200 726Q159 726 129.50 755Q100 784 100 825.50Q100 867 129.50 896.50M235.50 861Q235.50 861 228.25 868.50Q221 876 200 876Q179 876 164.50 861Q150 846 150 825.50Q150 805 164.50 790.50Q179 776 200 776Q221 776 235.50 790.50Q250 805 250 825.50Q250 846 235.50 861Z"  horiz-adv-x="400" vert-adv-y="1000"  />

      
      <glyph glyph-name="unibb" unicode="&#xbb;" d="M100 542L100 464L217 324L100 185L100 107L282 324L100 542M215 542L215 464L332 324L215 185L215 107L397 324L215 542Z"  horiz-adv-x="497" vert-adv-y="1000"  />

      
      <glyph glyph-name="unibf" unicode="&#xbf;" d="M250 589L250 609Q250 625 261.50 637Q273 649 290 649L310 649Q327 649 338.50 637Q350 625 350 609L350 589Q350 572 338.50 560.50Q327 549 310 549L290 549Q273 549 261.50 560.50Q250 572 250 589M200 74L200 49Q200 39 207.50 31.50Q215 24 225 24L275 24Q285 24 292.50 31.50Q300 39 300 49L300 124L400 124L400 24Q400-17 370.50-46.50Q341-76 300-76L200-76Q159-76 129.50-46.50Q100-17 100 24L100 74Q100 115 115.50 159.50Q131 204 153 244.50Q175 285 197 327.50Q219 370 234.50 421.50Q250 473 250 524L350 524Q350 455 334.50 397Q319 339 297 299.50Q275 260 253 225.50Q231 191 215.50 153Q200 115 200 74Z"  horiz-adv-x="500" vert-adv-y="1000"  />

      
      <glyph glyph-name="unic0" unicode="&#xc0;" d="M263 726L341 726L222 826L144 826L263 726M200 24L100 24L100 524Q100 566 129.50 595Q159 624 200 624L300 624Q341 624 370.50 595Q400 566 400 524L400 24L300 24L300 224L200 224L200 24M300 324L300 500Q300 510 292.50 517Q285 524 275 524L225 524Q215 524 207.50 517Q200 510 200 500L200 324L300 324Z"  horiz-adv-x="500" vert-adv-y="1000"  />

      
      <glyph glyph-name="unic1" unicode="&#xc1;" d="M222 726L144 726L263 826L341 826L222 726M200 24L100 24L100 524Q100 566 129.50 595Q159 624 200 624L300 624Q341 624 370.50 595Q400 566 400 524L400 24L300 24L300 224L200 224L200 24M300 324L300 500Q300 510 292.50 517Q285 524 275 524L225 524Q215 524 207.50 517Q200 510 200 500L200 324L300 324Z"  horiz-adv-x="500" vert-adv-y="1000"  />

      
      <glyph glyph-name="unic2" unicode="&#xc2;" d="M219 826L266 826L385 726L309 726L243 780L178 726L100 726L219 826M200 24L100 24L100 524Q100 566 129.50 595Q159 624 200 624L300 624Q341 624 370.50 595Q400 566 400 524L400 24L300 24L300 224L200 224L200 24M300 324L300 500Q300 510 292.50 517Q285 524 275 524L225 524Q215 524 207.50 517Q200 510 200 500L200 324L300 324Z"  horiz-adv-x="500" vert-adv-y="1000"  />

      
      <glyph glyph-name="unic3" unicode="&#xc3;" d="M100 764L135 799Q162 826 198.50 826Q235 826 263 799Q280 782 289 773Q298 764 310 764Q322 764 331 773L375 817L410 779L374 743Q346 716 309.50 716Q273 716 246 743Q242 746 233 755Q224 764 220 768Q211 777 199 777Q187 777 177 768L135 726L100 764M200 24L100 24L100 524Q100 566 129.50 595Q159 624 200 624L300 624Q341 624 370.50 595Q400 566 400 524L400 24L300 24L300 224L200 224L200 24M300 324L300 500Q300 510 292.50 517Q285 524 275 524L225 524Q215 524 207.50 517Q200 510 200 500L200 324L300 324Z"  horiz-adv-x="510" vert-adv-y="1000"  />

      
      <glyph glyph-name="unic4" unicode="&#xc4;" d="M164 756L164 771Q164 783 172.50 792Q181 801 194 801L209 801Q221 801 230 792Q239 783 239 771L239 756Q239 743 230 734.50Q221 726 209 726L194 726Q181 726 172.50 734.50Q164 743 164 756M260 756L260 771Q260 783 268.50 792Q277 801 290 801L305 801Q317 801 326 792Q335 783 335 771L335 756Q335 743 326 734.50Q317 726 305 726L290 726Q277 726 268.50 734.50Q260 743 260 756M200 24L100 24L100 524Q100 566 129.50 595Q159 624 200 624L300 624Q341 624 370.50 595Q400 566 400 524L400 24L300 24L300 224L200 224L200 24M300 324L300 500Q300 510 292.50 517Q285 524 275 524L225 524Q215 524 207.50 517Q200 510 200 500L200 324L300 324Z"  horiz-adv-x="500" vert-adv-y="1000"  />

      
      <glyph glyph-name="unic5" unicode="&#xc5;" d="M177.50 896.50Q177.50 896.50 192.25 911.25Q207 926 248 926Q289 926 318.50 896.50Q348 867 348 825.50Q348 784 318.50 755Q289 726 248 726Q207 726 177.50 755Q148 784 148 825.50Q148 867 177.50 896.50M283.50 861Q283.50 861 276.25 868.50Q269 876 248 876Q227 876 212.50 861Q198 846 198 825.50Q198 805 212.50 790.50Q227 776 248 776Q269 776 283.50 790.50Q298 805 298 825.50Q298 846 283.50 861M200 24L100 24L100 524Q100 566 129.50 595Q159 624 200 624L300 624Q341 624 370.50 595Q400 566 400 524L400 24L300 24L300 224L200 224L200 24M300 324L300 500Q300 510 292.50 517Q285 524 275 524L225 524Q215 524 207.50 517Q200 510 200 500L200 324L300 324Z"  horiz-adv-x="500" vert-adv-y="1000"  />

      
      <glyph glyph-name="unic6" unicode="&#xc6;" d="M200 624L550 624L550 524L400 524L400 374L520 374L520 274L400 274L400 124L550 124L550 24L400 24L300 24L300 224L200 224L200 24L100 24L100 524Q100 566 129.50 595Q159 624 200 624M300 324L300 500Q300 510 292.50 517Q285 524 275 524L225 524Q215 524 207.50 517Q200 510 200 500L200 324L300 324Z"  horiz-adv-x="650" vert-adv-y="1000"  />

      
      <glyph glyph-name="unic7" unicode="&#xc7;" d="M400 174L400 124Q400 83 370.50 53.50Q341 24 300 24L275 24L252-15L276-15Q307-15 329-37Q351-59 351-90.50Q351-122 329-143.50Q307-165 276-165L156-165L156-115L276-115Q286-115 293.50-108Q301-101 301-90.50Q301-80 293.50-72.50Q286-65 276-65L201-65L165-65L217 24L200 24Q159 24 129.50 53.50Q100 83 100 124L100 524Q100 566 129.50 595Q159 624 200 624L300 624Q341 624 370.50 595Q400 566 400 524L400 474L300 474L300 500Q300 510 292.50 517Q285 524 275 524L225 524Q215 524 207.50 517Q200 510 200 500L200 150Q200 139 207.50 131.50Q215 124 225 124L275 124Q285 124 292.50 131.50Q300 139 300 150L300 174L400 174Z"  horiz-adv-x="500" vert-adv-y="1000"  />

      
      <glyph glyph-name="unic8" unicode="&#xc8;" d="M245 726L323 726L204 826L126 826L245 726M100 624L350 624L350 524L200 524L200 374L320 374L320 274L200 274L200 124L350 124L350 24L100 24L100 624Z"  horiz-adv-x="450" vert-adv-y="1000"  />

      
      <glyph glyph-name="unic9" unicode="&#xc9;" d="M204 726L126 726L245 826L323 826L204 726M100 624L350 624L350 524L200 524L200 374L320 374L320 274L200 274L200 124L350 124L350 24L100 24L100 624Z"  horiz-adv-x="450" vert-adv-y="1000"  />

      
      <glyph glyph-name="unica" unicode="&#xca;" d="M219 826L266 826L385 726L309 726L243 780L178 726L100 726L219 826M117 624L367 624L367 524L217 524L217 374L337 374L337 274L217 274L217 124L367 124L367 24L117 24L117 624Z"  horiz-adv-x="485" vert-adv-y="1000"  />

      
      <glyph glyph-name="unicb" unicode="&#xcb;" d="M136 756L136 771Q136 783 145 792Q154 801 166 801L181 801Q194 801 202.50 792Q211 783 211 771L211 756Q211 743 202.50 734.50Q194 726 181 726L166 726Q154 726 145 734.50Q136 743 136 756M232 756L232 771Q232 783 240.50 792Q249 801 262 801L277 801Q289 801 298 792Q307 783 307 771L307 756Q307 743 298 734.50Q289 726 277 726L262 726Q249 726 240.50 734.50Q232 743 232 756M100 624L350 624L350 524L200 524L200 374L320 374L320 274L200 274L200 124L350 124L350 24L100 24L100 624Z"  horiz-adv-x="450" vert-adv-y="1000"  />

      
      <glyph glyph-name="unicc" unicode="&#xcc;" d="M219 726L297 726L178 826L100 826L219 726M148 24L148 624L248 624L248 24L148 24Z"  horiz-adv-x="396" vert-adv-y="1000"  />

      
      <glyph glyph-name="unicd" unicode="&#xcd;" d="M178 726L100 726L219 826L297 826L178 726M148 24L148 624L248 624L248 24L148 24Z"  horiz-adv-x="396" vert-adv-y="1000"  />

      
      <glyph glyph-name="unice" unicode="&#xce;" d="M219 826L266 826L385 726L309 726L243 780L178 726L100 726L219 826M194 24L194 624L294 624L294 24L194 24Z"  horiz-adv-x="485" vert-adv-y="1000"  />

      
      <glyph glyph-name="unicf" unicode="&#xcf;" d="M100 756L100 771Q100 783 109 792Q118 801 130 801L145 801Q158 801 166.50 792Q175 783 175 771L175 756Q175 743 166.50 734.50Q158 726 145 726L130 726Q118 726 109 734.50Q100 743 100 756M196 756L196 771Q196 783 204.50 792Q213 801 226 801L241 801Q253 801 262 792Q271 783 271 771L271 756Q271 743 262 734.50Q253 726 241 726L226 726Q213 726 204.50 734.50Q196 743 196 756M136 24L136 624L236 624L236 24L136 24Z"  horiz-adv-x="371" vert-adv-y="1000"  />

      
      <glyph glyph-name="unid0" unicode="&#xd0;" d="M211 301L211 124L286 124Q296 124 303.50 131.50Q311 139 311 150L311 500Q311 510 303.50 517Q296 524 286 524L211 524L211 351L276 351L276 301L211 301M411 524L411 124Q411 83 381.50 53.50Q352 24 311 24L111 24L111 301L40 301L40 351L111 351L111 624L311 624Q352 624 381.50 595Q411 566 411 524Z"  horiz-adv-x="511" vert-adv-y="1000"  />

      
      <glyph glyph-name="unid1" unicode="&#xd1;" d="M100 764L135 799Q162 826 198.50 826Q235 826 263 799Q280 782 289 773Q298 764 310 764Q322 764 331 773L375 817L410 779L374 743Q346 716 309.50 716Q273 716 246 743Q242 746 233 755Q224 764 220 768Q211 777 199 777Q187 777 177 768L135 726L100 764M319 24L200 352L200 24L100 24L100 624L207 624L320 315L320 624L420 624L420 24L319 24Z"  horiz-adv-x="520" vert-adv-y="1000"  />

      
      <glyph glyph-name="unid2" unicode="&#xd2;" d="M263 726L341 726L222 826L144 826L263 726M300 624Q341 624 370.50 595Q400 566 400 524L400 124Q400 83 370.50 53.50Q341 24 300 24L200 24Q159 24 129.50 53.50Q100 83 100 124L100 524Q100 566 129.50 595Q159 624 200 624L300 624M300 500Q300 510 292.50 517Q285 524 275 524L225 524Q215 524 207.50 517Q200 510 200 500L200 150Q200 139 207.50 131.50Q215 124 225 124L275 124Q285 124 292.50 131.50Q300 139 300 150L300 500Z"  horiz-adv-x="500" vert-adv-y="1000"  />

      
      <glyph glyph-name="unid3" unicode="&#xd3;" d="M222 726L144 726L263 826L341 826L222 726M300 624Q341 624 370.50 595Q400 566 400 524L400 124Q400 83 370.50 53.50Q341 24 300 24L200 24Q159 24 129.50 53.50Q100 83 100 124L100 524Q100 566 129.50 595Q159 624 200 624L300 624M300 500Q300 510 292.50 517Q285 524 275 524L225 524Q215 524 207.50 517Q200 510 200 500L200 150Q200 139 207.50 131.50Q215 124 225 124L275 124Q285 124 292.50 131.50Q300 139 300 150L300 500Z"  horiz-adv-x="500" vert-adv-y="1000"  />

      
      <glyph glyph-name="unid4" unicode="&#xd4;" d="M227 826L274 826L393 726L317 726L251 780L186 726L108 726L227 826M300 624Q341 624 370.50 595Q400 566 400 524L400 124Q400 83 370.50 53.50Q341 24 300 24L200 24Q159 24 129.50 53.50Q100 83 100 124L100 524Q100 566 129.50 595Q159 624 200 624L300 624M300 500Q300 510 292.50 517Q285 524 275 524L225 524Q215 524 207.50 517Q200 510 200 500L200 150Q200 139 207.50 131.50Q215 124 225 124L275 124Q285 124 292.50 131.50Q300 139 300 150L300 500Z"  horiz-adv-x="500" vert-adv-y="1000"  />

      
      <glyph glyph-name="unid5" unicode="&#xd5;" d="M100 764L135 799Q162 826 198.50 826Q235 826 263 799Q280 782 289 773Q298 764 310 764Q322 764 331 773L375 817L410 779L374 743Q346 716 309.50 716Q273 716 246 743Q242 746 233 755Q224 764 220 768Q211 777 199 777Q187 777 177 768L135 726L100 764M300 624Q341 624 370.50 595Q400 566 400 524L400 124Q400 83 370.50 53.50Q341 24 300 24L200 24Q159 24 129.50 53.50Q100 83 100 124L100 524Q100 566 129.50 595Q159 624 200 624L300 624M300 500Q300 510 292.50 517Q285 524 275 524L225 524Q215 524 207.50 517Q200 510 200 500L200 150Q200 139 207.50 131.50Q215 124 225 124L275 124Q285 124 292.50 131.50Q300 139 300 150L300 500Z"  horiz-adv-x="510" vert-adv-y="1000"  />

      
      <glyph glyph-name="unid6" unicode="&#xd6;" d="M164 756L164 771Q164 783 172.50 792Q181 801 194 801L209 801Q221 801 230 792Q239 783 239 771L239 756Q239 743 230 734.50Q221 726 209 726L194 726Q181 726 172.50 734.50Q164 743 164 756M260 756L260 771Q260 783 268.50 792Q277 801 290 801L305 801Q317 801 326 792Q335 783 335 771L335 756Q335 743 326 734.50Q317 726 305 726L290 726Q277 726 268.50 734.50Q260 743 260 756M300 624Q341 624 370.50 595Q400 566 400 524L400 124Q400 83 370.50 53.50Q341 24 300 24L200 24Q159 24 129.50 53.50Q100 83 100 124L100 524Q100 566 129.50 595Q159 624 200 624L300 624M300 500Q300 510 292.50 517Q285 524 275 524L225 524Q215 524 207.50 517Q200 510 200 500L200 150Q200 139 207.50 131.50Q215 124 225 124L275 124Q285 124 292.50 131.50Q300 139 300 150L300 500Z"  horiz-adv-x="500" vert-adv-y="1000"  />

      
      <glyph glyph-name="unid7" unicode="&#xd7;" d="M171 165L100 236L188 324L100 413L171 484L259 395L347 484L418 413L330 324L418 236L347 165L259 254L171 165Z"  horiz-adv-x="518" vert-adv-y="1000"  />

      
      <glyph glyph-name="unid8" unicode="&#xd8;" d="M408 567Q417 547 417 524L417 124Q417 83 388 53.50Q359 24 317 24L217 24Q188 24 163 41L155 24L100 24L127 82Q117 102 117 124L117 524Q117 566 146.50 595Q176 624 217 624L317 624Q347 624 372 608L380 624L435 624L408 567M317 373L217 158L217 150Q217 139 224.50 131.50Q232 124 242 124L292 124Q303 124 310 131.50Q317 139 317 150L317 373M317 491L317 500Q317 510 310 517Q303 524 292 524L242 524Q232 524 224.50 517Q217 510 217 500L217 276L317 491Z"  horiz-adv-x="534" vert-adv-y="1000"  />

      
      <glyph glyph-name="unid9" unicode="&#xd9;" d="M263 726L341 726L222 826L144 826L263 726M300 24L200 24Q159 24 129.50 53.50Q100 83 100 124L100 624L200 624L200 150Q200 139 207.50 131.50Q215 124 225 124L275 124Q285 124 292.50 131.50Q300 139 300 150L300 624L400 624L400 124Q400 83 370.50 53.50Q341 24 300 24Z"  horiz-adv-x="500" vert-adv-y="1000"  />

      
      <glyph glyph-name="unida" unicode="&#xda;" d="M222 726L144 726L263 826L341 826L222 726M300 24L200 24Q159 24 129.50 53.50Q100 83 100 124L100 624L200 624L200 150Q200 139 207.50 131.50Q215 124 225 124L275 124Q285 124 292.50 131.50Q300 139 300 150L300 624L400 624L400 124Q400 83 370.50 53.50Q341 24 300 24Z"  horiz-adv-x="500" vert-adv-y="1000"  />

      
      <glyph glyph-name="unidb" unicode="&#xdb;" d="M219 826L266 826L385 726L309 726L243 780L178 726L100 726L219 826M300 24L200 24Q159 24 129.50 53.50Q100 83 100 124L100 624L200 624L200 150Q200 139 207.50 131.50Q215 124 225 124L275 124Q285 124 292.50 131.50Q300 139 300 150L300 624L400 624L400 124Q400 83 370.50 53.50Q341 24 300 24Z"  horiz-adv-x="500" vert-adv-y="1000"  />

      
      <glyph glyph-name="unidc" unicode="&#xdc;" d="M164 756L164 771Q164 783 172.50 792Q181 801 194 801L209 801Q221 801 230 792Q239 783 239 771L239 756Q239 743 230 734.50Q221 726 209 726L194 726Q181 726 172.50 734.50Q164 743 164 756M260 756L260 771Q260 783 268.50 792Q277 801 290 801L305 801Q317 801 326 792Q335 783 335 771L335 756Q335 743 326 734.50Q317 726 305 726L290 726Q277 726 268.50 734.50Q260 743 260 756M300 24L200 24Q159 24 129.50 53.50Q100 83 100 124L100 624L200 624L200 150Q200 139 207.50 131.50Q215 124 225 124L275 124Q285 124 292.50 131.50Q300 139 300 150L300 624L400 624L400 124Q400 83 370.50 53.50Q341 24 300 24Z"  horiz-adv-x="500" vert-adv-y="1000"  />

      
      <glyph glyph-name="unidd" unicode="&#xdd;" d="M222 726L144 726L263 826L341 826L222 726M400 624L400 374Q400 333 370.50 303.50Q341 274 300 274L300 24L200 24L200 274Q159 274 129.50 303.50Q100 333 100 374L100 624L200 624L200 400Q200 389 207.50 381.50Q215 374 225 374L275 374Q285 374 292.50 381.50Q300 389 300 400L300 624L400 624Z"  horiz-adv-x="500" vert-adv-y="1000"  />

      
      <glyph glyph-name="unide" unicode="&#xde;" d="M200 250L352 250Q362 250 369 257.50Q376 265 376 275L376 374Q376 384 369 391.50Q362 399 352 399L200 399L200 250M100 24L100 624L200 624L200 499L376 499Q418 499 447 469.50Q476 440 476 399L476 250Q476 209 447 179.50Q418 150 376 150L200 150L200 24L100 24Z"  horiz-adv-x="576" vert-adv-y="1000"  />

      
      <glyph glyph-name="unidf" unicode="&#xdf;" d="M250 124L325 124Q356 124 378 146Q400 168 400 200L400 250Q400 260 392.50 267Q385 274 375 274L275 274Q265 274 257.50 281.50Q250 289 250 300L250 350Q250 360 257.50 367Q265 374 275 374Q285 374 292.50 381.50Q300 389 300 400L300 500Q300 510 292.50 517Q285 524 275 524L225 524Q215 524 207.50 517Q200 510 200 500L200 24L100 24L100 524Q100 566 129.50 595Q159 624 200 624L300 624Q341 624 370.50 595Q400 566 400 524L400 374Q441 374 470.50 345Q500 316 500 275L500 174Q500 112 456 68Q412 24 350 24L250 24L250 124Z"  horiz-adv-x="600" vert-adv-y="1000"  />

      
      <glyph glyph-name="unie0" unicode="&#xe0;" d="M263 726L341 726L222 826L144 826L263 726M200 24L100 24L100 524Q100 566 129.50 595Q159 624 200 624L300 624Q341 624 370.50 595Q400 566 400 524L400 24L300 24L300 224L200 224L200 24M300 324L300 500Q300 510 292.50 517Q285 524 275 524L225 524Q215 524 207.50 517Q200 510 200 500L200 324L300 324Z"  horiz-adv-x="500" vert-adv-y="1000"  />

      
      <glyph glyph-name="unie1" unicode="&#xe1;" d="M222 726L144 726L263 826L341 826L222 726M200 24L100 24L100 524Q100 566 129.50 595Q159 624 200 624L300 624Q341 624 370.50 595Q400 566 400 524L400 24L300 24L300 224L200 224L200 24M300 324L300 500Q300 510 292.50 517Q285 524 275 524L225 524Q215 524 207.50 517Q200 510 200 500L200 324L300 324Z"  horiz-adv-x="500" vert-adv-y="1000"  />

      
      <glyph glyph-name="unie2" unicode="&#xe2;" d="M219 826L266 826L385 726L309 726L243 780L178 726L100 726L219 826M200 24L100 24L100 524Q100 566 129.50 595Q159 624 200 624L300 624Q341 624 370.50 595Q400 566 400 524L400 24L300 24L300 224L200 224L200 24M300 324L300 500Q300 510 292.50 517Q285 524 275 524L225 524Q215 524 207.50 517Q200 510 200 500L200 324L300 324Z"  horiz-adv-x="500" vert-adv-y="1000"  />

      
      <glyph glyph-name="unie3" unicode="&#xe3;" d="M100 764L135 799Q162 826 198.50 826Q235 826 263 799Q280 782 289 773Q298 764 310 764Q322 764 331 773L375 817L410 779L374 743Q346 716 309.50 716Q273 716 246 743Q242 746 233 755Q224 764 220 768Q211 777 199 777Q187 777 177 768L135 726L100 764M200 24L100 24L100 524Q100 566 129.50 595Q159 624 200 624L300 624Q341 624 370.50 595Q400 566 400 524L400 24L300 24L300 224L200 224L200 24M300 324L300 500Q300 510 292.50 517Q285 524 275 524L225 524Q215 524 207.50 517Q200 510 200 500L200 324L300 324Z"  horiz-adv-x="510" vert-adv-y="1000"  />

      
      <glyph glyph-name="unie4" unicode="&#xe4;" d="M164 756L164 771Q164 783 172.50 792Q181 801 194 801L209 801Q221 801 230 792Q239 783 239 771L239 756Q239 743 230 734.50Q221 726 209 726L194 726Q181 726 172.50 734.50Q164 743 164 756M260 756L260 771Q260 783 268.50 792Q277 801 290 801L305 801Q317 801 326 792Q335 783 335 771L335 756Q335 743 326 734.50Q317 726 305 726L290 726Q277 726 268.50 734.50Q260 743 260 756M200 24L100 24L100 524Q100 566 129.50 595Q159 624 200 624L300 624Q341 624 370.50 595Q400 566 400 524L400 24L300 24L300 224L200 224L200 24M300 324L300 500Q300 510 292.50 517Q285 524 275 524L225 524Q215 524 207.50 517Q200 510 200 500L200 324L300 324Z"  horiz-adv-x="500" vert-adv-y="1000"  />

      
      <glyph glyph-name="unie5" unicode="&#xe5;" d="M177.50 896.50Q177.50 896.50 192.25 911.25Q207 926 248 926Q289 926 318.50 896.50Q348 867 348 825.50Q348 784 318.50 755Q289 726 248 726Q207 726 177.50 755Q148 784 148 825.50Q148 867 177.50 896.50M283.50 861Q283.50 861 276.25 868.50Q269 876 248 876Q227 876 212.50 861Q198 846 198 825.50Q198 805 212.50 790.50Q227 776 248 776Q269 776 283.50 790.50Q298 805 298 825.50Q298 846 283.50 861M200 24L100 24L100 524Q100 566 129.50 595Q159 624 200 624L300 624Q341 624 370.50 595Q400 566 400 524L400 24L300 24L300 224L200 224L200 24M300 324L300 500Q300 510 292.50 517Q285 524 275 524L225 524Q215 524 207.50 517Q200 510 200 500L200 324L300 324Z"  horiz-adv-x="500" vert-adv-y="1000"  />

      
      <glyph glyph-name="unie6" unicode="&#xe6;" d="M200 624L550 624L550 524L400 524L400 374L520 374L520 274L400 274L400 124L550 124L550 24L400 24L300 24L300 224L200 224L200 24L100 24L100 524Q100 566 129.50 595Q159 624 200 624M300 324L300 500Q300 510 292.50 517Q285 524 275 524L225 524Q215 524 207.50 517Q200 510 200 500L200 324L300 324Z"  horiz-adv-x="650" vert-adv-y="1000"  />

      
      <glyph glyph-name="unie7" unicode="&#xe7;" d="M400 174L400 124Q400 83 370.50 53.50Q341 24 300 24L275 24L252-15L276-15Q307-15 329-37Q351-59 351-90.50Q351-122 329-143.50Q307-165 276-165L156-165L156-115L276-115Q286-115 293.50-108Q301-101 301-90.50Q301-80 293.50-72.50Q286-65 276-65L201-65L165-65L217 24L200 24Q159 24 129.50 53.50Q100 83 100 124L100 524Q100 566 129.50 595Q159 624 200 624L300 624Q341 624 370.50 595Q400 566 400 524L400 474L300 474L300 500Q300 510 292.50 517Q285 524 275 524L225 524Q215 524 207.50 517Q200 510 200 500L200 150Q200 139 207.50 131.50Q215 124 225 124L275 124Q285 124 292.50 131.50Q300 139 300 150L300 174L400 174Z"  horiz-adv-x="500" vert-adv-y="1000"  />

      
      <glyph glyph-name="unie8" unicode="&#xe8;" d="M204 726L126 726L245 826L323 826L204 726M100 624L350 624L350 524L200 524L200 374L320 374L320 274L200 274L200 124L350 124L350 24L100 24L100 624Z"  horiz-adv-x="450" vert-adv-y="1000"  />

      
      <glyph glyph-name="unie9" unicode="&#xe9;" d="M219 826L266 826L385 726L309 726L243 780L178 726L100 726L219 826M117 624L367 624L367 524L217 524L217 374L337 374L337 274L217 274L217 124L367 124L367 24L117 24L117 624Z"  horiz-adv-x="485" vert-adv-y="1000"  />

      
      <glyph glyph-name="uniea" unicode="&#xea;" d="M136 756L136 771Q136 783 145 792Q154 801 166 801L181 801Q194 801 202.50 792Q211 783 211 771L211 756Q211 743 202.50 734.50Q194 726 181 726L166 726Q154 726 145 734.50Q136 743 136 756M232 756L232 771Q232 783 240.50 792Q249 801 262 801L277 801Q289 801 298 792Q307 783 307 771L307 756Q307 743 298 734.50Q289 726 277 726L262 726Q249 726 240.50 734.50Q232 743 232 756M100 624L350 624L350 524L200 524L200 374L320 374L320 274L200 274L200 124L350 124L350 24L100 24L100 624Z"  horiz-adv-x="450" vert-adv-y="1000"  />

      
      <glyph glyph-name="unieb" unicode="&#xeb;" d="M204 726L126 726L245 826L323 826L204 726M100 624L350 624L350 524L200 524L200 374L320 374L320 274L200 274L200 124L350 124L350 24L100 24L100 624Z"  horiz-adv-x="450" vert-adv-y="1000"  />

      
      <glyph glyph-name="uniec" unicode="&#xec;" d="M219 726L297 726L178 826L100 826L219 726M148 24L148 624L248 624L248 24L148 24Z"  horiz-adv-x="396" vert-adv-y="1000"  />

      
      <glyph glyph-name="unied" unicode="&#xed;" d="M178 726L100 726L219 826L297 826L178 726M148 24L148 624L248 624L248 24L148 24Z"  horiz-adv-x="396" vert-adv-y="1000"  />

      
      <glyph glyph-name="uniee" unicode="&#xee;" d="M219 826L266 826L385 726L309 726L243 780L178 726L100 726L219 826M194 24L194 624L294 624L294 24L194 24Z"  horiz-adv-x="485" vert-adv-y="1000"  />

      
      <glyph glyph-name="unief" unicode="&#xef;" d="M100 756L100 771Q100 783 109 792Q118 801 130 801L145 801Q158 801 166.50 792Q175 783 175 771L175 756Q175 743 166.50 734.50Q158 726 145 726L130 726Q118 726 109 734.50Q100 743 100 756M196 756L196 771Q196 783 204.50 792Q213 801 226 801L241 801Q253 801 262 792Q271 783 271 771L271 756Q271 743 262 734.50Q253 726 241 726L226 726Q213 726 204.50 734.50Q196 743 196 756M136 24L136 624L236 624L236 24L136 24Z"  horiz-adv-x="371" vert-adv-y="1000"  />

      
      <glyph glyph-name="unif0" unicode="&#xf0;" d="M245 519Q230 524 215 524L190 524L190 624L200 624Q258 624 307 594L333 624L398 624L346 562Q400 504 400 424L400 124Q400 83 370.50 53.50Q341 24 300 24L200 24Q159 24 129.50 53.50Q100 83 100 124L100 274Q100 316 129.50 345Q159 374 200 374L300 374L300 440Q300 467 284 489L230 424L165 424L245 519M200 250L200 150Q200 139 207.50 131.50Q215 124 225 124L275 124Q285 124 292.50 131.50Q300 139 300 150L300 274L225 274Q215 274 207.50 267Q200 260 200 250Z"  horiz-adv-x="500" vert-adv-y="1000"  />

      
      <glyph glyph-name="unif1" unicode="&#xf1;" d="M100 764L135 799Q162 826 198.50 826Q235 826 263 799Q280 782 289 773Q298 764 310 764Q322 764 331 773L375 817L410 779L374 743Q346 716 309.50 716Q273 716 246 743Q242 746 233 755Q224 764 220 768Q211 777 199 777Q187 777 177 768L135 726L100 764M319 24L200 352L200 24L100 24L100 624L207 624L320 315L320 624L420 624L420 24L319 24Z"  horiz-adv-x="520" vert-adv-y="1000"  />

      
      <glyph glyph-name="unif2" unicode="&#xf2;" d="M263 726L341 726L222 826L144 826L263 726M300 624Q341 624 370.50 595Q400 566 400 524L400 124Q400 83 370.50 53.50Q341 24 300 24L200 24Q159 24 129.50 53.50Q100 83 100 124L100 524Q100 566 129.50 595Q159 624 200 624L300 624M300 500Q300 510 292.50 517Q285 524 275 524L225 524Q215 524 207.50 517Q200 510 200 500L200 150Q200 139 207.50 131.50Q215 124 225 124L275 124Q285 124 292.50 131.50Q300 139 300 150L300 500Z"  horiz-adv-x="500" vert-adv-y="1000"  />

      
      <glyph glyph-name="unif3" unicode="&#xf3;" d="M222 726L144 726L263 826L341 826L222 726M300 624Q341 624 370.50 595Q400 566 400 524L400 124Q400 83 370.50 53.50Q341 24 300 24L200 24Q159 24 129.50 53.50Q100 83 100 124L100 524Q100 566 129.50 595Q159 624 200 624L300 624M300 500Q300 510 292.50 517Q285 524 275 524L225 524Q215 524 207.50 517Q200 510 200 500L200 150Q200 139 207.50 131.50Q215 124 225 124L275 124Q285 124 292.50 131.50Q300 139 300 150L300 500Z"  horiz-adv-x="500" vert-adv-y="1000"  />

      
      <glyph glyph-name="unif4" unicode="&#xf4;" d="M227 826L274 826L393 726L317 726L251 780L186 726L108 726L227 826M300 624Q341 624 370.50 595Q400 566 400 524L400 124Q400 83 370.50 53.50Q341 24 300 24L200 24Q159 24 129.50 53.50Q100 83 100 124L100 524Q100 566 129.50 595Q159 624 200 624L300 624M300 500Q300 510 292.50 517Q285 524 275 524L225 524Q215 524 207.50 517Q200 510 200 500L200 150Q200 139 207.50 131.50Q215 124 225 124L275 124Q285 124 292.50 131.50Q300 139 300 150L300 500Z"  horiz-adv-x="500" vert-adv-y="1000"  />

      
      <glyph glyph-name="unif5" unicode="&#xf5;" d="M100 764L135 799Q162 826 198.50 826Q235 826 263 799Q280 782 289 773Q298 764 310 764Q322 764 331 773L375 817L410 779L374 743Q346 716 309.50 716Q273 716 246 743Q242 746 233 755Q224 764 220 768Q211 777 199 777Q187 777 177 768L135 726L100 764M300 624Q341 624 370.50 595Q400 566 400 524L400 124Q400 83 370.50 53.50Q341 24 300 24L200 24Q159 24 129.50 53.50Q100 83 100 124L100 524Q100 566 129.50 595Q159 624 200 624L300 624M300 500Q300 510 292.50 517Q285 524 275 524L225 524Q215 524 207.50 517Q200 510 200 500L200 150Q200 139 207.50 131.50Q215 124 225 124L275 124Q285 124 292.50 131.50Q300 139 300 150L300 500Z"  horiz-adv-x="510" vert-adv-y="1000"  />

      
      <glyph glyph-name="unif6" unicode="&#xf6;" d="M164 756L164 771Q164 783 172.50 792Q181 801 194 801L209 801Q221 801 230 792Q239 783 239 771L239 756Q239 743 230 734.50Q221 726 209 726L194 726Q181 726 172.50 734.50Q164 743 164 756M260 756L260 771Q260 783 268.50 792Q277 801 290 801L305 801Q317 801 326 792Q335 783 335 771L335 756Q335 743 326 734.50Q317 726 305 726L290 726Q277 726 268.50 734.50Q260 743 260 756M300 624Q341 624 370.50 595Q400 566 400 524L400 124Q400 83 370.50 53.50Q341 24 300 24L200 24Q159 24 129.50 53.50Q100 83 100 124L100 524Q100 566 129.50 595Q159 624 200 624L300 624M300 500Q300 510 292.50 517Q285 524 275 524L225 524Q215 524 207.50 517Q200 510 200 500L200 150Q200 139 207.50 131.50Q215 124 225 124L275 124Q285 124 292.50 131.50Q300 139 300 150L300 500Z"  horiz-adv-x="500" vert-adv-y="1000"  />

      
      <glyph glyph-name="unif7" unicode="&#xf7;" d="M313 470L313 450Q313 433 301.50 421.50Q290 410 273 410L253 410Q236 410 224.50 421.50Q213 433 213 450L213 470Q213 487 224.50 498.50Q236 510 253 510L273 510Q290 510 301.50 498.50Q313 487 313 470M313 205L313 185Q313 168 301.50 156.50Q290 145 273 145L253 145Q236 145 224.50 156.50Q213 168 213 185L213 205Q213 222 224.50 233.50Q236 245 253 245L273 245Q290 245 301.50 233.50Q313 222 313 205M100 274L100 374L450 374L450 274L100 274Z"  horiz-adv-x="550" vert-adv-y="1000"  />

      
      <glyph glyph-name="unif8" unicode="&#xf8;" d="M408 567Q417 547 417 524L417 124Q417 83 388 53.50Q359 24 317 24L217 24Q188 24 163 41L155 24L100 24L127 82Q117 102 117 124L117 524Q117 566 146.50 595Q176 624 217 624L317 624Q347 624 372 608L380 624L435 624L408 567M317 373L217 158L217 150Q217 139 224.50 131.50Q232 124 242 124L292 124Q303 124 310 131.50Q317 139 317 150L317 373M317 491L317 500Q317 510 310 517Q303 524 292 524L242 524Q232 524 224.50 517Q217 510 217 500L217 276L317 491Z"  horiz-adv-x="534" vert-adv-y="1000"  />

      
      <glyph glyph-name="unif9" unicode="&#xf9;" d="M263 726L341 726L222 826L144 826L263 726M300 24L200 24Q159 24 129.50 53.50Q100 83 100 124L100 624L200 624L200 150Q200 139 207.50 131.50Q215 124 225 124L275 124Q285 124 292.50 131.50Q300 139 300 150L300 624L400 624L400 124Q400 83 370.50 53.50Q341 24 300 24Z"  horiz-adv-x="500" vert-adv-y="1000"  />

      
      <glyph glyph-name="unifa" unicode="&#xfa;" d="M222 726L144 726L263 826L341 826L222 726M300 24L200 24Q159 24 129.50 53.50Q100 83 100 124L100 624L200 624L200 150Q200 139 207.50 131.50Q215 124 225 124L275 124Q285 124 292.50 131.50Q300 139 300 150L300 624L400 624L400 124Q400 83 370.50 53.50Q341 24 300 24Z"  horiz-adv-x="500" vert-adv-y="1000"  />

      
      <glyph glyph-name="unifb" unicode="&#xfb;" d="M219 826L266 826L385 726L309 726L243 780L178 726L100 726L219 826M300 24L200 24Q159 24 129.50 53.50Q100 83 100 124L100 624L200 624L200 150Q200 139 207.50 131.50Q215 124 225 124L275 124Q285 124 292.50 131.50Q300 139 300 150L300 624L400 624L400 124Q400 83 370.50 53.50Q341 24 300 24Z"  horiz-adv-x="500" vert-adv-y="1000"  />

      
      <glyph glyph-name="unifc" unicode="&#xfc;" d="M164 756L164 771Q164 783 172.50 792Q181 801 194 801L209 801Q221 801 230 792Q239 783 239 771L239 756Q239 743 230 734.50Q221 726 209 726L194 726Q181 726 172.50 734.50Q164 743 164 756M260 756L260 771Q260 783 268.50 792Q277 801 290 801L305 801Q317 801 326 792Q335 783 335 771L335 756Q335 743 326 734.50Q317 726 305 726L290 726Q277 726 268.50 734.50Q260 743 260 756M300 24L200 24Q159 24 129.50 53.50Q100 83 100 124L100 624L200 624L200 150Q200 139 207.50 131.50Q215 124 225 124L275 124Q285 124 292.50 131.50Q300 139 300 150L300 624L400 624L400 124Q400 83 370.50 53.50Q341 24 300 24Z"  horiz-adv-x="500" vert-adv-y="1000"  />

      
      <glyph glyph-name="unifd" unicode="&#xfd;" d="M222 726L144 726L263 826L341 826L222 726M400 624L400 374Q400 333 370.50 303.50Q341 274 300 274L300 24L200 24L200 274Q159 274 129.50 303.50Q100 333 100 374L100 624L200 624L200 400Q200 389 207.50 381.50Q215 374 225 374L275 374Q285 374 292.50 381.50Q300 389 300 400L300 624L400 624Z"  horiz-adv-x="500" vert-adv-y="1000"  />

      
      <glyph glyph-name="unife" unicode="&#xfe;" d="M200 250L352 250Q362 250 369 257.50Q376 265 376 275L376 374Q376 384 369 391.50Q362 399 352 399L200 399L200 250M100 24L100 624L200 624L200 499L376 499Q418 499 447 469.50Q476 440 476 399L476 250Q476 209 447 179.50Q418 150 376 150L200 150L200 24L100 24Z"  horiz-adv-x="576" vert-adv-y="1000"  />

      
      <glyph glyph-name="uniff" unicode="&#xff;" d="M164 756L164 771Q164 783 172.50 792Q181 801 194 801L209 801Q221 801 230 792Q239 783 239 771L239 756Q239 743 230 734.50Q221 726 209 726L194 726Q181 726 172.50 734.50Q164 743 164 756M260 756L260 771Q260 783 268.50 792Q277 801 290 801L305 801Q317 801 326 792Q335 783 335 771L335 756Q335 743 326 734.50Q317 726 305 726L290 726Q277 726 268.50 734.50Q260 743 260 756M400 624L400 374Q400 333 370.50 303.50Q341 274 300 274L300 24L200 24L200 274Q159 274 129.50 303.50Q100 333 100 374L100 624L200 624L200 400Q200 389 207.50 381.50Q215 374 225 374L275 374Q285 374 292.50 381.50Q300 389 300 400L300 624L400 624Z"  horiz-adv-x="500" vert-adv-y="1000"  />

      
      <glyph glyph-name="uni0131" unicode="&#x0131;" d="M100 24L100 439L200 439L200 24L100 24Z"  horiz-adv-x="300" vert-adv-y="1000"  />

      
      <glyph glyph-name="uni0141" unicode="&#x0141;" d="M272 486L350 486L217 374L217 124L367 124L367 24L117 24L117 291L58 241L-20 241L117 356L117 624L217 624L217 440L272 486Z"  horiz-adv-x="466" vert-adv-y="1000"  />

      
      <glyph glyph-name="uni0142" unicode="&#x0142;" d="M272 486L350 486L217 374L217 124L367 124L367 24L117 24L117 291L58 241L-20 241L117 356L117 624L217 624L217 440L272 486Z"  horiz-adv-x="466" vert-adv-y="1000"  />

      
      <glyph glyph-name="uni0152" unicode="&#x0152;" d="M200 624L550 624L550 524L400 524L400 374L520 374L520 274L400 274L400 124L550 124L550 24L200 24Q159 24 129.50 53.50Q100 83 100 124L100 524Q100 566 129.50 595Q159 624 200 624M275 124Q285 124 292.50 131.50Q300 139 300 150L300 500Q300 510 292.50 517Q285 524 275 524L225 524Q215 524 207.50 517Q200 510 200 500L200 150Q200 139 207.50 131.50Q215 124 225 124L275 124Z"  horiz-adv-x="650" vert-adv-y="1000"  />

      
      <glyph glyph-name="uni0153" unicode="&#x0153;" d="M200 624L550 624L550 524L400 524L400 374L520 374L520 274L400 274L400 124L550 124L550 24L200 24Q159 24 129.50 53.50Q100 83 100 124L100 524Q100 566 129.50 595Q159 624 200 624M275 124Q285 124 292.50 131.50Q300 139 300 150L300 500Q300 510 292.50 517Q285 524 275 524L225 524Q215 524 207.50 517Q200 510 200 500L200 150Q200 139 207.50 131.50Q215 124 225 124L275 124Z"  horiz-adv-x="650" vert-adv-y="1000"  />

      
      <glyph glyph-name="uni017D" unicode="&#x017D;" d="M231 726L278 726L397 826L321 826L255 771L190 826L112 826L231 726M405 524L210 124L410 124L410 24L100 24L100 127L294 524L105 524L105 624L405 624L405 524Z"  horiz-adv-x="510" vert-adv-y="1000"  />

      
      <glyph glyph-name="uni02C6" unicode="&#x02C6;" d="M219 826L266 826L385 726L309 726L243 780L178 726L100 726L219 826Z"  horiz-adv-x="485" vert-adv-y="1000"  />

      
      <glyph glyph-name="uni02C7" unicode="&#x02C7;" d="M219 726L266 726L385 826L309 826L243 771L178 826L100 826L219 726Z"  horiz-adv-x="485" vert-adv-y="1000"  />

      
      <glyph glyph-name="uni02D8" unicode="&#x02D8;" d="M250 826L300 826Q300 784 270.50 755Q241 726 200 726Q159 726 129.50 755Q100 784 100 826L150 826Q150 805 164.50 790.50Q179 776 200 776Q221 776 235.50 790.50Q250 805 250 826Z"  horiz-adv-x="400" vert-adv-y="1000"  />

      
      <glyph glyph-name="uni02D9" unicode="&#x02D9;" d="M100 756L100 771Q100 783 109 792Q118 801 130 801L145 801Q158 801 166.50 792Q175 783 175 771L175 756Q175 743 166.50 734.50Q158 726 145 726L130 726Q118 726 109 734.50Q100 743 100 756Z"  horiz-adv-x="275" vert-adv-y="1000"  />

      
      <glyph glyph-name="uni02DA" unicode="&#x02DA;" d="M129.50 896.50Q129.50 896.50 144.25 911.25Q159 926 200 926Q241 926 270.50 896.50Q300 867 300 825.50Q300 784 270.50 755Q241 726 200 726Q159 726 129.50 755Q100 784 100 825.50Q100 867 129.50 896.50M235.50 861Q235.50 861 228.25 868.50Q221 876 200 876Q179 876 164.50 861Q150 846 150 825.50Q150 805 164.50 790.50Q179 776 200 776Q221 776 235.50 790.50Q250 805 250 825.50Q250 846 235.50 861Z"  horiz-adv-x="400" vert-adv-y="1000"  />

      
      <glyph glyph-name="uni02DB" unicode="&#x02DB;" d="M155-96Q120-96 105-64Q90-32 113-6L196 94L235 62Q183 1 158-29Q154-34 156.50-40Q159-46 166-46L228-46L228-96L155-96Z"  horiz-adv-x="334" vert-adv-y="1000"  />

      
      <glyph glyph-name="uni02DC" unicode="&#x02DC;" d="M100 764L135 799Q162 826 198.50 826Q235 826 263 799Q280 782 289 773Q298 764 310 764Q322 764 331 773L375 817L410 779L374 743Q346 716 309.50 716Q273 716 246 743Q242 746 233 755Q224 764 220 768Q211 777 199 777Q187 777 177 768L135 726L100 764Z"  horiz-adv-x="510" vert-adv-y="1000"  />

      
      <glyph glyph-name="uni02DD" unicode="&#x02DD;" d="M178 726L100 726L219 826L297 826L178 726M312 726L234 726L353 826L431 826L312 726Z"  horiz-adv-x="531" vert-adv-y="1000"  />

      
      <glyph glyph-name="uni2013" unicode="&#x2013;" d="M100 274L100 374L450 374L450 274L100 274Z"  horiz-adv-x="550" vert-adv-y="1000"  />

      
      <glyph glyph-name="uni2014" unicode="&#x2014;" d="M100 301L100 351L486 351L486 301L100 301Z"  horiz-adv-x="586" vert-adv-y="1000"  />

      
      <glyph glyph-name="uni2018" unicode="&#x2018;" d="M219 726L297 726L178 826L100 826L219 726Z"  horiz-adv-x="396" vert-adv-y="1000"  />

      
      <glyph glyph-name="uni2019" unicode="&#x2019;" d="M200 542Q200 514 181 494.50Q162 475 132 475L132 505Q140 505 145 510Q150 515 150 522L150 525L140 525Q123 525 111.50 536.50Q100 548 100 565L100 585Q100 601 111.50 613Q123 625 140 625L160 625Q177 625 188.50 613Q200 601 200 585L200 542Z"  horiz-adv-x="300" vert-adv-y="1000"  />

      
      <glyph glyph-name="uni201A" unicode="&#x201A;" d="M200 42Q200 13 181-6.50Q162-26 132-26L132 4Q140 4 145 9Q150 14 150 22L150 24L140 24Q123 24 111.50 35.50Q100 47 100 64L100 84Q100 101 111.50 112.50Q123 124 140 124L160 124Q177 124 188.50 112.50Q200 101 200 84L200 42Z"  horiz-adv-x="300" vert-adv-y="1000"  />

      
      <glyph glyph-name="uni201C" unicode="&#x201C;" d="M353 726L431 726L312 826L234 826L353 726M219 726L297 726L178 826L100 826L219 726Z"  horiz-adv-x="531" vert-adv-y="1000"  />

      
      <glyph glyph-name="uni201D" unicode="&#x201D;" d="M178 726L100 726L219 826L297 826L178 726M312 726L234 726L353 826L431 826L312 726Z"  horiz-adv-x="531" vert-adv-y="1000"  />

      
      <glyph glyph-name="uni201E" unicode="&#x201E;" d="M178-28L100-28L219 72L297 72L178-28M312-28L234-28L353 72L431 72L312-28Z"  horiz-adv-x="531" vert-adv-y="1000"  />

      
      <glyph glyph-name="uni2022" unicode="&#x2022;" d="M129.50 395Q129.50 395 144.25 409.50Q159 424 200 424Q241 424 270.50 395Q300 366 300 324.50Q300 283 270.50 253.50Q241 224 200 224Q159 224 129.50 253.50Q100 283 100 324.50Q100 366 129.50 395Z"  horiz-adv-x="400" vert-adv-y="1000"  />

      
      <glyph glyph-name="uni2030" unicode="&#x2030;" d="M660 174L660 124Q660 83 630.50 53.50Q601 24 560 24L510 24Q469 24 439.50 53.50Q410 83 410 124L410 174Q410 216 439.50 245Q469 274 510 274L560 274Q601 274 630.50 245Q660 216 660 174M588 160Q588 177 575.50 189.50Q563 202 546 202L524 202Q507 202 494.50 189.50Q482 177 482 160L482 139Q482 122 494.50 109.50Q507 97 524 97L546 97Q563 97 575.50 109.50Q588 122 588 139L588 160M961 174L961 124Q961 83 931.50 53.50Q902 24 861 24L811 24Q770 24 740.50 53.50Q711 83 711 124L711 174Q711 216 740.50 245Q770 274 811 274L861 274Q902 274 931.50 245Q961 216 961 174M267 24L212 24L491 624L547 624L267 24M888 160Q888 177 876 189.50Q864 202 846 202L826 202Q808 202 796 189.50Q784 177 784 160L784 139Q784 122 796 109.50Q808 97 826 97L846 97Q864 97 876 109.50Q888 122 888 139L888 160M350 524L350 474Q350 433 320.50 403.50Q291 374 250 374L200 374Q159 374 129.50 403.50Q100 433 100 474L100 524Q100 566 129.50 595Q159 624 200 624L250 624Q291 624 320.50 595Q350 566 350 524M278 510Q278 527 265.50 539.50Q253 552 236 552L214 552Q197 552 184.50 539.50Q172 527 172 510L172 489Q172 472 184.50 459.50Q197 447 214 447L236 447Q253 447 265.50 459.50Q278 472 278 489L278 510Z"  horiz-adv-x="1061" vert-adv-y="1000"  />

      
      <glyph glyph-name="uni2039" unicode="&#x2039;" d="M282 542L282 464L165 324L282 185L282 107L100 324L282 542Z"  horiz-adv-x="382" vert-adv-y="1000"  />

      
      <glyph glyph-name="uni203A" unicode="&#x203A;" d="M100 542L100 464L217 324L100 185L100 107L282 324L100 542Z"  horiz-adv-x="382" vert-adv-y="1000"  />

      
      <glyph glyph-name="uni20AC" unicode="&#x20AC;" d="M160 440L160 524Q160 566 189.50 595Q219 624 260 624L360 624Q401 624 430.50 595Q460 566 460 524L460 474L360 474L360 500Q360 510 352.50 517Q345 524 335 524L285 524Q275 524 267.50 517Q260 510 260 500L260 440L330 440L330 340L260 340L260 310L330 310L330 210L260 210L260 150Q260 139 267.50 131.50Q275 124 285 124L335 124Q345 124 352.50 131.50Q360 139 360 150L360 174L460 174L460 124Q460 83 430.50 53.50Q401 24 360 24L260 24Q219 24 189.50 53.50Q160 83 160 124L160 210L100 210L100 310L160 310L160 340L100 340L100 440L160 440Z"  horiz-adv-x="560" vert-adv-y="1000"  />

      
      <glyph glyph-name="uni20B4" unicode="&#x20B4;" d="M451 310L451 250L229 250Q221 245 215 239Q200 224 200 210L200 150Q200 139 207.50 131.50Q215 124 225 124L275 124Q285 124 292.50 131.50Q300 139 300 150L300 210L400 210L400 124Q400 83 370.50 53.50Q341 24 300 24L200 24Q159 24 129.50 53.50Q100 83 100 124L100 210Q100 231 106 250L51 250L51 310L451 310M51 340L51 400L272 400Q276 404 280 408Q300 429 300 454L300 500Q300 510 292.50 517Q285 524 275 524L225 524Q215 524 207.50 517Q200 510 200 500L200 457L100 457L100 524Q100 566 129.50 595Q159 624 200 624L300 624Q341 624 370.50 595Q400 566 400 524L400 454Q400 425 392 400L451 400L451 340L51 340Z"  horiz-adv-x="500" vert-adv-y="1000"  />

      
      <glyph glyph-name="uni20BD" unicode="&#x20BD;" d="M300 500Q300 510 292.50 517Q285 524 275 524L200 524L200 349L275 349Q285 349 292.50 356.50Q300 364 300 374L300 500M200 100L200 24L100 24L100 100L50 100L50 200L100 200L100 624L300 624Q341 624 370.50 595Q400 566 400 524L400 348Q400 311 375.50 283Q351 255 315 249L200 249L200 200L300 200L300 100L200 100Z"  horiz-adv-x="500" vert-adv-y="1000"  />

      
      <glyph glyph-name="uni0401" unicode="&#x0401;" d="M136 756L136 771Q136 783 145 792Q154 801 166 801L181 801Q194 801 202.50 792Q211 783 211 771L211 756Q211 743 202.50 734.50Q194 726 181 726L166 726Q154 726 145 734.50Q136 743 136 756M232 756L232 771Q232 783 240.50 792Q249 801 262 801L277 801Q289 801 298 792Q307 783 307 771L307 756Q307 743 298 734.50Q289 726 277 726L262 726Q249 726 240.50 734.50Q232 743 232 756M100 624L350 624L350 524L200 524L200 374L320 374L320 274L200 274L200 124L350 124L350 24L100 24L100 624Z"  horiz-adv-x="450" vert-adv-y="1000"  />

      
      <glyph glyph-name="uni0404" unicode="&#x0404;" d="M200 274L200 150Q200 139 207.50 131.50Q215 124 225 124L275 124Q285 124 292.50 131.50Q300 139 300 150L300 174L400 174L400 124Q400 83 370.50 53.50Q341 24 300 24L200 24Q159 24 129.50 53.50Q100 83 100 124L100 524Q100 566 129.50 595Q159 624 200 624L300 624Q341 624 370.50 595Q400 566 400 524L400 474L300 474L300 500Q300 510 292.50 517Q285 524 275 524L225 524Q215 524 207.50 517Q200 510 200 500L200 374L320 374L320 274L200 274Z"  horiz-adv-x="500" vert-adv-y="1000"  />

      
      <glyph glyph-name="uni0406" unicode="&#x0406;" d="M100 24L100 624L200 624L200 24L100 24Z"  horiz-adv-x="300" vert-adv-y="1000"  />

      
      <glyph glyph-name="uni0407" unicode="&#x0407;" d="M100 756L100 771Q100 783 109 792Q118 801 130 801L145 801Q158 801 166.50 792Q175 783 175 771L175 756Q175 743 166.50 734.50Q158 726 145 726L130 726Q118 726 109 734.50Q100 743 100 756M196 756L196 771Q196 783 204.50 792Q213 801 226 801L241 801Q253 801 262 792Q271 783 271 771L271 756Q271 743 262 734.50Q253 726 241 726L226 726Q213 726 204.50 734.50Q196 743 196 756M136 24L136 624L236 624L236 24L136 24Z"  horiz-adv-x="371" vert-adv-y="1000"  />

      
      <glyph glyph-name="uni0490" unicode="&#x0490;" d="M200 524L200 24L100 24L100 624L250 624L250 708L350 708L350 524L200 524Z"  horiz-adv-x="430" vert-adv-y="1000"  />

      
      <glyph glyph-name="uni040E" unicode="&#x040E;" d="M300 274L200 274Q159 274 129.50 303.50Q100 333 100 374L100 624L200 624L200 400Q200 389 207.50 381.50Q215 374 225 374L300 374L300 624L400 624L400 124Q400 83 370.50 53.50Q341 24 300 24L200 24Q159 24 129.50 53.50Q100 83 100 124L100 174L200 174L200 150Q200 139 207.50 131.50Q215 124 225 124L275 124Q285 124 292.50 131.50Q300 139 300 150L300 274M306 754L356 754Q356 712 326.50 683Q297 654 256 654Q215 654 185.50 683Q156 712 156 754L206 754Q206 733 220.50 718.50Q235 704 256 704Q277 704 291.50 718.50Q306 733 306 754Z"  horiz-adv-x="500" vert-adv-y="1000"  />

      
      <glyph glyph-name="uni0410" unicode="&#x0410;" d="M200 24L100 24L100 524Q100 566 129.50 595Q159 624 200 624L300 624Q341 624 370.50 595Q400 566 400 524L400 24L300 24L300 224L200 224L200 24M300 324L300 500Q300 510 292.50 517Q285 524 275 524L225 524Q215 524 207.50 517Q200 510 200 500L200 324L300 324Z"  horiz-adv-x="500" vert-adv-y="1000"  />

      
      <glyph glyph-name="uni0411" unicode="&#x0411;" d="M200 399L315 398Q351 392 375.50 364Q400 336 400 299L400 124Q400 82 370.50 53Q341 24 300 24L100 24L100 624L350 624L350 524L200 524L200 399M200 124L275 124Q285 124 292.50 131Q300 138 300 148L300 274Q300 284 292.50 291.50Q285 299 275 299L200 299L200 124Z"  horiz-adv-x="500" vert-adv-y="1000"  />

      
      <glyph glyph-name="uni0412" unicode="&#x0412;" d="M100 24L100 624L290 624Q331 624 360.50 595Q390 566 390 524L390 400Q390 358 365 324Q390 291 390 250L390 124Q390 83 360.50 53.50Q331 24 290 24L200 24L100 24M255 274L200 274L200 124L265 124Q275 124 282.50 131.50Q290 139 290 150L290 240Q290 254 279.50 264Q269 274 255 274M200 524L200 374L255 374Q269 374 279.50 384.50Q290 395 290 410L290 500Q290 510 282.50 517Q275 524 265 524L200 524Z"  horiz-adv-x="490" vert-adv-y="1000"  />

      
      <glyph glyph-name="uni0413" unicode="&#x0413;" d="M100 624L350 624L350 524L200 524L200 24L100 24L100 624Z"  horiz-adv-x="430" vert-adv-y="1000"  />

      
      <glyph glyph-name="uni0414" unicode="&#x0414;" d="M350 124L350 524L275 524Q265 524 257.50 516.50Q250 509 250 498L250 124L350 124M450 124L500 124L500-60L400-60L400 24L200 24L200-60L100-60L100 124L125 124Q135 124 142.50 131.50Q150 139 150 150L150 524Q150 565 179.50 594.50Q209 624 250 624L450 624L450 124Z"  horiz-adv-x="551" vert-adv-y="1000"  />

      
      <glyph glyph-name="uni0415" unicode="&#x0415;" d="M100 624L350 624L350 524L200 524L200 374L320 374L320 274L200 274L200 124L350 124L350 24L100 24L100 624Z"  horiz-adv-x="450" vert-adv-y="1000"  />

      
      <glyph glyph-name="uni0416" unicode="&#x0416;" d="M380 374L389 374L479 620L587 620L479 324L588 24L480 24L389 274L380 274L380 24L280 24L280 274L271 274L180 24L72 24L181 324L73 620L181 620L271 374L280 374L280 624L380 624L380 374Z"  horiz-adv-x="634" vert-adv-y="1000"  />

      
      <glyph glyph-name="uni0417" unicode="&#x0417;" d="M275 274L200 274L200 374L275 374Q285 374 292.50 381.50Q300 389 300 400L300 500Q300 510 292.50 517Q285 524 275 524L225 524Q215 524 207.50 517Q200 510 200 500L200 474L100 474L100 524Q100 566 129.50 595Q159 624 200 624L300 624Q341 624 370.50 595Q400 566 400 524L400 400Q400 358 375 324Q400 291 400 250L400 124Q400 83 370.50 53.50Q341 24 300 24L200 24Q159 24 129.50 53.50Q100 83 100 124L100 174L200 174L200 150Q200 139 207.50 131.50Q215 124 225 124L275 124Q285 124 292.50 131.50Q300 139 300 150L300 250Q300 260 292.50 267Q285 274 275 274Z"  horiz-adv-x="500" vert-adv-y="1000"  />

      
      <glyph glyph-name="uni0418" unicode="&#x0418;" d="M100 24L100 624L200 624L200 315L313 624L420 624L420 24L320 24L320 352L201 24L100 24Z"  horiz-adv-x="520" vert-adv-y="1000"  />

      
      <glyph glyph-name="uni0419" unicode="&#x0419;" d="M100 24L100 624L200 624L200 315L313 624L420 624L420 24L320 24L320 352L201 24L100 24M306 754L356 754Q356 712 326.50 683Q297 654 256 654Q215 654 185.50 683Q156 712 156 754L206 754Q206 733 220.50 718.50Q235 704 256 704Q277 704 291.50 718.50Q306 733 306 754Z"  horiz-adv-x="520" vert-adv-y="1000"  />

      
      <glyph glyph-name="uni041A" unicode="&#x041A;" d="M408 24L300 24L209 274L200 274L200 24L100 24L100 624L200 624L200 374L209 374L299 620L407 620L299 324L408 24Z"  horiz-adv-x="473" vert-adv-y="1000"  />

      
      <glyph glyph-name="uni041B" unicode="&#x041B;" d="M250 124Q250 83 220.50 53.50Q191 24 150 24L100 24L100 124L125 124Q135 124 142.50 131.50Q150 139 150 150L150 524Q150 565 179.50 594.50Q209 624 250 624L450 624L450 24L350 24L350 524L275 524Q265 524 257.50 516.50Q250 509 250 498L250 124Z"  horiz-adv-x="551" vert-adv-y="1000"  />

      
      <glyph glyph-name="uni041C" unicode="&#x041C;" d="M500 624L500 24L400 24L400 352L335 174L265 174L200 352L200 24L100 24L100 624L207 624L300 370L393 624L500 624Z"  horiz-adv-x="600" vert-adv-y="1000"  />

      
      <glyph glyph-name="uni041D" unicode="&#x041D;" d="M100 624L200 624L200 374L300 374L300 624L400 624L400 24L300 24L300 274L200 274L200 24L100 24L100 624Z"  horiz-adv-x="500" vert-adv-y="1000"  />

      
      <glyph glyph-name="uni041E" unicode="&#x041E;" d="M300 624Q341 624 370.50 595Q400 566 400 524L400 124Q400 83 370.50 53.50Q341 24 300 24L200 24Q159 24 129.50 53.50Q100 83 100 124L100 524Q100 566 129.50 595Q159 624 200 624L300 624M300 500Q300 510 292.50 517Q285 524 275 524L225 524Q215 524 207.50 517Q200 510 200 500L200 150Q200 139 207.50 131.50Q215 124 225 124L275 124Q285 124 292.50 131.50Q300 139 300 150L300 500Z"  horiz-adv-x="500" vert-adv-y="1000"  />

      
      <glyph glyph-name="uni041F" unicode="&#x041F;" d="M100 624L400 624L400 24L300 24L300 524L200 524L200 24L100 24L100 624Z"  horiz-adv-x="500" vert-adv-y="1000"  />

      
      <glyph glyph-name="uni0420" unicode="&#x0420;" d="M200 24L100 24L100 624L300 624Q341 624 370.50 595Q400 566 400 524L400 349Q400 312 375.50 284Q351 256 315 250L200 249L200 24M300 500Q300 510 292.50 517Q285 524 275 524L200 524L200 349L275 349Q285 349 292.50 356.50Q300 364 300 374L300 500Z"  horiz-adv-x="500" vert-adv-y="1000"  />

      
      <glyph glyph-name="uni0421" unicode="&#x0421;" d="M400 174L400 124Q400 83 370.50 53.50Q341 24 300 24L200 24Q159 24 129.50 53.50Q100 83 100 124L100 524Q100 566 129.50 595Q159 624 200 624L300 624Q341 624 370.50 595Q400 566 400 524L400 474L300 474L300 500Q300 510 292.50 517Q285 524 275 524L225 524Q215 524 207.50 517Q200 510 200 500L200 150Q200 139 207.50 131.50Q215 124 225 124L275 124Q285 124 292.50 131.50Q300 139 300 150L300 174L400 174Z"  horiz-adv-x="500" vert-adv-y="1000"  />

      
      <glyph glyph-name="uni0422" unicode="&#x0422;" d="M80 624L380 624L380 524L280 524L280 24L180 24L180 524L80 524L80 624Z"  horiz-adv-x="460" vert-adv-y="1000"  />

      
      <glyph glyph-name="uni0423" unicode="&#x0423;" d="M300 274L200 274Q159 274 129.50 303.50Q100 333 100 374L100 624L200 624L200 400Q200 389 207.50 381.50Q215 374 225 374L300 374L300 624L400 624L400 124Q400 83 370.50 53.50Q341 24 300 24L200 24Q159 24 129.50 53.50Q100 83 100 124L100 174L200 174L200 150Q200 139 207.50 131.50Q215 124 225 124L275 124Q285 124 292.50 131.50Q300 139 300 150L300 274Z"  horiz-adv-x="500" vert-adv-y="1000"  />

      
      <glyph glyph-name="uni0424" unicode="&#x0424;" d="M296 200L296 449L224 449Q214 449 207 441.50Q200 434 200 424L200 225Q200 215 207 207.50Q214 200 224 200L296 200M396 449L396 200L468 200Q478 200 485 207.50Q492 215 492 225L492 424Q492 434 485 441.50Q478 449 468 449L396 449M396 549L492 549Q534 549 563 519.50Q592 490 592 449L592 200Q592 159 563 129.50Q534 100 492 100L396 100L396 24L296 24L296 100L200 100Q158 100 129 129.50Q100 159 100 200L100 449Q100 490 129 519.50Q158 549 200 549L296 549L296 624L396 624L396 549Z"  horiz-adv-x="695" vert-adv-y="1000"  />

      
      <glyph glyph-name="uni0425" unicode="&#x0425;" d="M245 433L296 624L400 624L320 324L400 24L296 24L245 216L194 24L90 24L170 324L90 624L194 624L245 433Z"  horiz-adv-x="489" vert-adv-y="1000"  />

      
      <glyph glyph-name="uni0426" unicode="&#x0426;" d="M400 124L450 124L450-60L350-60L350 24L100 24L100 624L200 624L200 124L300 124L300 624L400 624L400 124Z"  horiz-adv-x="500" vert-adv-y="1000"  />

      
      <glyph glyph-name="uni0427" unicode="&#x0427;" d="M400 624L400 24L300 24L300 274L200 274Q159 274 129.50 303.50Q100 333 100 374L100 624L200 624L200 400Q200 389 207.50 381.50Q215 374 225 374L300 374L300 624L400 624Z"  horiz-adv-x="500" vert-adv-y="1000"  />

      
      <glyph glyph-name="uni0428" unicode="&#x0428;" d="M100 24L100 624L200 624L200 124L250 124L250 624L350 624L350 124L400 124L400 624L500 624L500 24L100 24Z"  horiz-adv-x="600" vert-adv-y="1000"  />

      
      <glyph glyph-name="uni0429" unicode="&#x0429;" d="M100 24L100 624L200 624L200 124L250 124L250 624L350 624L350 124L400 124L400 624L500 624L500 124L550 124L550-60L450-60L450 24L100 24Z"  horiz-adv-x="600" vert-adv-y="1000"  />

      
      <glyph glyph-name="uni042A" unicode="&#x042A;" d="M400 274Q400 284 392.50 291.50Q385 299 375 299L300 299L300 124L375 124Q385 124 392.50 131Q400 138 400 148L400 274M300 399L415 398Q451 392 475.50 364Q500 336 500 299L500 124Q500 82 470.50 53Q441 24 400 24L200 24L200 524L100 524L100 624L300 624L300 399Z"  horiz-adv-x="600" vert-adv-y="1000"  />

      
      <glyph glyph-name="uni042B" unicode="&#x042B;" d="M200 399L315 398Q351 392 375.50 364Q400 336 400 299L400 124Q400 82 370.50 53Q341 24 300 24L100 24L100 624L200 624L200 399M300 274Q300 284 292.50 291.50Q285 299 275 299L200 299L200 124L275 124Q285 124 292.50 131Q300 138 300 148L300 274M454 24L454 624L554 624L554 24L454 24Z"  horiz-adv-x="653" vert-adv-y="1000"  />

      
      <glyph glyph-name="uni042C" unicode="&#x042C;" d="M200 399L315 398Q351 392 375.50 364Q400 336 400 299L400 124Q400 82 370.50 53Q341 24 300 24L100 24L100 624L200 624L200 399M300 274Q300 284 292.50 291.50Q285 299 275 299L200 299L200 124L275 124Q285 124 292.50 131Q300 138 300 148L300 274Z"  horiz-adv-x="500" vert-adv-y="1000"  />

      
      <glyph glyph-name="uni042D" unicode="&#x042D;" d="M180 274L180 374L300 374L300 500Q300 510 292.50 517Q285 524 275 524L225 524Q215 524 207.50 517Q200 510 200 500L200 474L100 474L100 524Q100 566 129.50 595Q159 624 200 624L300 624Q341 624 370.50 595Q400 566 400 524L400 124Q400 83 370.50 53.50Q341 24 300 24L200 24Q159 24 129.50 53.50Q100 83 100 124L100 174L200 174L200 150Q200 139 207.50 131.50Q215 124 225 124L275 124Q285 124 292.50 131.50Q300 139 300 150L300 274L180 274Z"  horiz-adv-x="500" vert-adv-y="1000"  />

      
      <glyph glyph-name="uni042E" unicode="&#x042E;" d="M448 500Q448 510 440.50 517Q433 524 423 524L373 524Q363 524 355.50 517Q348 510 348 500L348 150Q348 139 355.50 131.50Q363 124 373 124L423 124Q433 124 440.50 131.50Q448 139 448 150L448 500M248 274L200 274L200 24L100 24L100 624L200 624L200 374L248 374L248 524Q248 566 277.50 595Q307 624 348 624L448 624Q489 624 518.50 595Q548 566 548 524L548 124Q548 83 518.50 53.50Q489 24 448 24L348 24Q307 24 277.50 53.50Q248 83 248 124L248 274Z"  horiz-adv-x="650" vert-adv-y="1000"  />

      
      <glyph glyph-name="uni042F" unicode="&#x042F;" d="M169 254Q139 264 119.50 290Q100 316 100 349L100 524Q100 566 129.50 595Q159 624 200 624L400 624L400 24L300 24L300 249L275 249L194 24L86 24L169 254M200 374Q200 364 207.50 356.50Q215 349 225 349L300 349L300 524L225 524Q215 524 207.50 517Q200 510 200 500L200 374Z"  horiz-adv-x="512" vert-adv-y="1000"  />

      
      <glyph glyph-name="uni0430" unicode="&#x0430;" d="M200 24L100 24L100 524Q100 566 129.50 595Q159 624 200 624L300 624Q341 624 370.50 595Q400 566 400 524L400 24L300 24L300 224L200 224L200 24M300 324L300 500Q300 510 292.50 517Q285 524 275 524L225 524Q215 524 207.50 517Q200 510 200 500L200 324L300 324Z"  horiz-adv-x="500" vert-adv-y="1000"  />

      
      <glyph glyph-name="uni0431" unicode="&#x0431;" d="M200 399L315 398Q351 392 375.50 364Q400 336 400 299L400 124Q400 82 370.50 53Q341 24 300 24L100 24L100 624L350 624L350 524L200 524L200 399M200 124L275 124Q285 124 292.50 131Q300 138 300 148L300 274Q300 284 292.50 291.50Q285 299 275 299L200 299L200 124Z"  horiz-adv-x="500" vert-adv-y="1000"  />

      
      <glyph glyph-name="uni0432" unicode="&#x0432;" d="M100 24L100 624L290 624Q331 624 360.50 595Q390 566 390 524L390 400Q390 358 365 324Q390 291 390 250L390 124Q390 83 360.50 53.50Q331 24 290 24L200 24L100 24M255 274L200 274L200 124L265 124Q275 124 282.50 131.50Q290 139 290 150L290 240Q290 254 279.50 264Q269 274 255 274M200 524L200 374L255 374Q269 374 279.50 384.50Q290 395 290 410L290 500Q290 510 282.50 517Q275 524 265 524L200 524Z"  horiz-adv-x="490" vert-adv-y="1000"  />

      
      <glyph glyph-name="uni0433" unicode="&#x0433;" d="M100 624L350 624L350 524L200 524L200 24L100 24L100 624Z"  horiz-adv-x="430" vert-adv-y="1000"  />

      
      <glyph glyph-name="uni0434" unicode="&#x0434;" d="M350 124L350 524L275 524Q265 524 257.50 516.50Q250 509 250 498L250 124L350 124M450 124L500 124L500-60L400-60L400 24L200 24L200-60L100-60L100 124L125 124Q135 124 142.50 131.50Q150 139 150 150L150 524Q150 565 179.50 594.50Q209 624 250 624L450 624L450 124Z"  horiz-adv-x="551" vert-adv-y="1000"  />

      
      <glyph glyph-name="uni0435" unicode="&#x0435;" d="M100 624L350 624L350 524L200 524L200 374L320 374L320 274L200 274L200 124L350 124L350 24L100 24L100 624Z"  horiz-adv-x="450" vert-adv-y="1000"  />

      
      <glyph glyph-name="uni0436" unicode="&#x0436;" d="M380 374L389 374L479 620L587 620L479 324L588 24L480 24L389 274L380 274L380 24L280 24L280 274L271 274L180 24L72 24L181 324L73 620L181 620L271 374L280 374L280 624L380 624L380 374Z"  horiz-adv-x="634" vert-adv-y="1000"  />

      
      <glyph glyph-name="uni0437" unicode="&#x0437;" d="M275 274L200 274L200 374L275 374Q285 374 292.50 381.50Q300 389 300 400L300 500Q300 510 292.50 517Q285 524 275 524L225 524Q215 524 207.50 517Q200 510 200 500L200 474L100 474L100 524Q100 566 129.50 595Q159 624 200 624L300 624Q341 624 370.50 595Q400 566 400 524L400 400Q400 358 375 324Q400 291 400 250L400 124Q400 83 370.50 53.50Q341 24 300 24L200 24Q159 24 129.50 53.50Q100 83 100 124L100 174L200 174L200 150Q200 139 207.50 131.50Q215 124 225 124L275 124Q285 124 292.50 131.50Q300 139 300 150L300 250Q300 260 292.50 267Q285 274 275 274Z"  horiz-adv-x="500" vert-adv-y="1000"  />

      
      <glyph glyph-name="uni0438" unicode="&#x0438;" d="M100 24L100 624L200 624L200 315L313 624L420 624L420 24L320 24L320 352L201 24L100 24Z"  horiz-adv-x="520" vert-adv-y="1000"  />

      
      <glyph glyph-name="uni0439" unicode="&#x0439;" d="M100 24L100 624L200 624L200 315L313 624L420 624L420 24L320 24L320 352L201 24L100 24M306 754L356 754Q356 712 326.50 683Q297 654 256 654Q215 654 185.50 683Q156 712 156 754L206 754Q206 733 220.50 718.50Q235 704 256 704Q277 704 291.50 718.50Q306 733 306 754Z"  horiz-adv-x="520" vert-adv-y="1000"  />

      
      <glyph glyph-name="uni043A" unicode="&#x043A;" d="M408 24L300 24L209 274L200 274L200 24L100 24L100 624L200 624L200 374L209 374L299 620L407 620L299 324L408 24Z"  horiz-adv-x="473" vert-adv-y="1000"  />

      
      <glyph glyph-name="uni043B" unicode="&#x043B;" d="M250 124Q250 83 220.50 53.50Q191 24 150 24L100 24L100 124L125 124Q135 124 142.50 131.50Q150 139 150 150L150 524Q150 565 179.50 594.50Q209 624 250 624L450 624L450 24L350 24L350 524L275 524Q265 524 257.50 516.50Q250 509 250 498L250 124Z"  horiz-adv-x="551" vert-adv-y="1000"  />

      
      <glyph glyph-name="uni043C" unicode="&#x043C;" d="M500 624L500 24L400 24L400 352L335 174L265 174L200 352L200 24L100 24L100 624L207 624L300 370L393 624L500 624Z"  horiz-adv-x="600" vert-adv-y="1000"  />

      
      <glyph glyph-name="uni043D" unicode="&#x043D;" d="M100 624L200 624L200 374L300 374L300 624L400 624L400 24L300 24L300 274L200 274L200 24L100 24L100 624Z"  horiz-adv-x="500" vert-adv-y="1000"  />

      
      <glyph glyph-name="uni043E" unicode="&#x043E;" d="M300 624Q341 624 370.50 595Q400 566 400 524L400 124Q400 83 370.50 53.50Q341 24 300 24L200 24Q159 24 129.50 53.50Q100 83 100 124L100 524Q100 566 129.50 595Q159 624 200 624L300 624M300 500Q300 510 292.50 517Q285 524 275 524L225 524Q215 524 207.50 517Q200 510 200 500L200 150Q200 139 207.50 131.50Q215 124 225 124L275 124Q285 124 292.50 131.50Q300 139 300 150L300 500Z"  horiz-adv-x="500" vert-adv-y="1000"  />

      
      <glyph glyph-name="uni043F" unicode="&#x043F;" d="M100 624L400 624L400 24L300 24L300 524L200 524L200 24L100 24L100 624Z"  horiz-adv-x="500" vert-adv-y="1000"  />

      
      <glyph glyph-name="uni0440" unicode="&#x0440;" d="M200 24L100 24L100 624L300 624Q341 624 370.50 595Q400 566 400 524L400 349Q400 312 375.50 284Q351 256 315 250L200 249L200 24M300 500Q300 510 292.50 517Q285 524 275 524L200 524L200 349L275 349Q285 349 292.50 356.50Q300 364 300 374L300 500Z"  horiz-adv-x="500" vert-adv-y="1000"  />

      
      <glyph glyph-name="uni0441" unicode="&#x0441;" d="M400 174L400 124Q400 83 370.50 53.50Q341 24 300 24L200 24Q159 24 129.50 53.50Q100 83 100 124L100 524Q100 566 129.50 595Q159 624 200 624L300 624Q341 624 370.50 595Q400 566 400 524L400 474L300 474L300 500Q300 510 292.50 517Q285 524 275 524L225 524Q215 524 207.50 517Q200 510 200 500L200 150Q200 139 207.50 131.50Q215 124 225 124L275 124Q285 124 292.50 131.50Q300 139 300 150L300 174L400 174Z"  horiz-adv-x="500" vert-adv-y="1000"  />

      
      <glyph glyph-name="uni0442" unicode="&#x0442;" d="M80 624L380 624L380 524L280 524L280 24L180 24L180 524L80 524L80 624Z"  horiz-adv-x="460" vert-adv-y="1000"  />

      
      <glyph glyph-name="uni0443" unicode="&#x0443;" d="M300 274L200 274Q159 274 129.50 303.50Q100 333 100 374L100 624L200 624L200 400Q200 389 207.50 381.50Q215 374 225 374L300 374L300 624L400 624L400 124Q400 83 370.50 53.50Q341 24 300 24L200 24Q159 24 129.50 53.50Q100 83 100 124L100 174L200 174L200 150Q200 139 207.50 131.50Q215 124 225 124L275 124Q285 124 292.50 131.50Q300 139 300 150L300 274Z"  horiz-adv-x="500" vert-adv-y="1000"  />

      
      </font>
</defs>
</svg>
