<svg width="138" height="36" viewBox="0 0 138 36" fill="none" xmlns="http://www.w3.org/2000/svg">
<path d="M65.0131 27.7199V25.5599H67.5903V22.8383C67.5903 22.6943 67.533 22.5719 67.4185 22.4711C67.3183 22.3703 67.1966 22.3199 67.0534 22.3199H65.9795C65.8364 22.3199 65.7075 22.3703 65.593 22.4711C65.4927 22.5719 65.4426 22.6943 65.4426 22.8383V23.3999H63.2949V22.3199C63.2949 21.7151 63.5025 21.2039 63.9178 20.7863C64.3473 20.3687 64.8556 20.1599 65.4426 20.1599H67.5903C68.1773 20.1599 68.6785 20.3687 69.0937 20.7863C69.5232 21.2039 69.738 21.7151 69.738 22.3199V30.9599C69.738 31.5503 69.5232 32.0615 69.0937 32.4935C68.6785 32.9111 68.1773 33.1199 67.5903 33.1199H65.4426C64.8556 33.1199 64.3473 32.9111 63.9178 32.4935C63.5025 32.0615 63.2949 31.5503 63.2949 30.9599V29.8799H65.4426V30.3983C65.4426 30.5567 65.4927 30.6935 65.593 30.8087C65.7075 30.9095 65.8364 30.9599 65.9795 30.9599H67.0534C67.1966 30.9599 67.3183 30.9095 67.4185 30.8087C67.533 30.6935 67.5903 30.5567 67.5903 30.3983V27.7199H65.0131Z" fill="#07669A"/>
<path d="M58.9997 29.8799V30.9599C58.9997 31.5503 58.785 32.0615 58.3554 32.4935C57.9402 32.9111 57.4391 33.1199 56.852 33.1199H54.7043C54.1173 33.1199 53.609 32.9111 53.1795 32.4935C52.7643 32.0615 52.5566 31.5503 52.5566 30.9599V22.3199C52.5566 21.7151 52.7643 21.2039 53.1795 20.7863C53.609 20.3687 54.1173 20.1599 54.7043 20.1599H56.852C57.4391 20.1599 57.9402 20.3687 58.3554 20.7863C58.785 21.2039 58.9997 21.7151 58.9997 22.3199V23.3999H56.852V22.8383C56.852 22.6943 56.7948 22.5719 56.6802 22.4711C56.58 22.3703 56.4583 22.3199 56.3151 22.3199H55.2413C55.0981 22.3199 54.9692 22.3703 54.8547 22.4711C54.7544 22.5719 54.7043 22.6943 54.7043 22.8383V30.3983C54.7043 30.5567 54.7544 30.6935 54.8547 30.8087C54.9692 30.9095 55.0981 30.9599 55.2413 30.9599H56.3151C56.4583 30.9599 56.58 30.9095 56.6802 30.8087C56.7948 30.6935 56.852 30.5567 56.852 30.3983V29.8799H58.9997Z" fill="#07669A"/>
<path d="M43.9661 33.1199H41.8184V20.1599H46.1137C46.7008 20.1599 47.2019 20.3687 47.6171 20.7863C48.0467 21.2039 48.2614 21.7151 48.2614 22.3199V26.0999C48.2614 26.6327 48.0825 27.1007 47.7245 27.5039C47.3809 27.9071 46.9513 28.1519 46.4359 28.2383L43.9661 28.2599V33.1199ZM46.1137 22.8383C46.1137 22.6943 46.0565 22.5719 45.9419 22.4711C45.8417 22.3703 45.72 22.3199 45.5768 22.3199H43.9661V26.0999H45.5768C45.72 26.0999 45.8417 26.0495 45.9419 25.9487C46.0565 25.8335 46.1137 25.7039 46.1137 25.5599V22.8383Z" fill="#07669A"/>
<path d="M128.77 20.1599H135.213V22.3199H133.065V33.1199H130.917V22.3199H128.77V20.1599Z" fill="#07669A"/>
<path d="M125.664 33.1199H123.344L121.39 27.7199H121.197V33.1199H119.049V20.1599H121.197V25.5599H121.39L123.323 20.2463H125.642L123.323 26.6399L125.664 33.1199Z" fill="#07669A"/>
<path d="M109.379 20.1599H114.748V22.3199H111.527V25.5599H114.104V27.7199H111.527V30.9599H114.748V33.1199H109.379V20.1599Z" fill="#07669A"/>
<path d="M102.936 20.1599C103.523 20.1599 104.024 20.3687 104.439 20.7863C104.869 21.2039 105.084 21.7151 105.084 22.3199V30.9599C105.084 31.5503 104.869 32.0615 104.439 32.4935C104.024 32.9111 103.523 33.1199 102.936 33.1199H100.788C100.201 33.1199 99.693 32.9111 99.2635 32.4935C98.8482 32.0615 98.6406 31.5503 98.6406 30.9599V22.3199C98.6406 21.7151 98.8482 21.2039 99.2635 20.7863C99.693 20.3687 100.201 20.1599 100.788 20.1599H102.936ZM102.936 22.8383C102.936 22.6943 102.879 22.5719 102.764 22.4711C102.664 22.3703 102.542 22.3199 102.399 22.3199H101.325C101.182 22.3199 101.053 22.3703 100.939 22.4711C100.838 22.5719 100.788 22.6943 100.788 22.8383V30.3983C100.788 30.5567 100.838 30.6935 100.939 30.8087C101.053 30.9095 101.182 30.9599 101.325 30.9599H102.399C102.542 30.9599 102.664 30.9095 102.764 30.8087C102.879 30.6935 102.936 30.5567 102.936 30.3983V22.8383Z" fill="#07669A"/>
<path d="M90.05 33.1199H87.9023V20.1599H92.1977C92.7848 20.1599 93.2859 20.3687 93.7011 20.7863C94.1307 21.2039 94.3454 21.7151 94.3454 22.3199V26.0999C94.3454 26.6327 94.1664 27.1007 93.8085 27.5039C93.4649 27.9071 93.0353 28.1519 92.5199 28.2383L90.05 28.2599V33.1199ZM92.1977 22.8383C92.1977 22.6943 92.1405 22.5719 92.0259 22.4711C91.9257 22.3703 91.804 22.3199 91.6608 22.3199H90.05V26.0999H91.6608C91.804 26.0999 91.9257 26.0495 92.0259 25.9487C92.1405 25.8335 92.1977 25.7039 92.1977 25.5599V22.8383Z" fill="#07669A"/>
<path d="M77.1641 20.1599H83.6071V33.1199H81.4594V22.3199H79.3118V33.1199H77.1641V20.1599Z" fill="#07669A"/>
<path fill-rule="evenodd" clip-rule="evenodd" d="M2.78711 2.87988H32.0598V33.1199H2.78711V2.87988ZM4.32335 4.46688H30.5236V31.5329H4.32335V4.46688Z" fill="#07669A"/>
<path d="M19.5201 26.9065H8.92383V15.8083H10.2115V25.5775H19.5201V26.9065Z" fill="#07669A"/>
<path d="M11.7734 9.21973H26.0462V23.9641L11.7734 9.21973Z" fill="#07669A"/>
</svg>
