<svg width="32" height="32" viewBox="0 0 32 32" fill="none" xmlns="http://www.w3.org/2000/svg">
<g clip-path="url(#clip0_456_697)">
<path fill-rule="evenodd" clip-rule="evenodd" d="M5.3687 5.36809C8.18845 2.54835 12.0128 0.964233 16.0006 0.964233C19.9883 0.964233 23.8127 2.54835 26.6324 5.36809C29.4522 8.18783 31.0363 12.0122 31.0363 15.9999C31.0363 19.9877 29.4522 23.8121 26.6324 26.6318C23.8127 29.4515 19.9883 31.0357 16.0006 31.0357C12.0128 31.0357 8.18845 29.4515 5.3687 26.6318C2.54896 23.8121 0.964844 19.9877 0.964844 15.9999C0.964844 12.0122 2.54896 8.18783 5.3687 5.36809ZM16.0006 2.46423C12.4107 2.46423 8.9678 3.89031 6.42936 6.42875C3.89092 8.96719 2.46484 12.4101 2.46484 15.9999C2.46484 19.5898 3.89092 23.0327 6.42936 25.5711C8.9678 28.1096 12.4107 29.5357 16.0006 29.5357C19.5905 29.5357 23.0333 28.1096 25.5718 25.5711C28.1102 23.0327 29.5363 19.5898 29.5363 15.9999C29.5363 12.4101 28.1102 8.96719 25.5718 6.42875C23.0333 3.89031 19.5905 2.46423 16.0006 2.46423Z" fill="#07669A"/>
<path fill-rule="evenodd" clip-rule="evenodd" d="M22.6971 8.09504C22.9155 8.24691 23.0371 8.50312 23.0167 8.76837L21.8167 24.3615C21.7941 24.6553 21.6016 24.9086 21.3246 25.0091C21.0475 25.1095 20.7374 25.0384 20.5318 24.8273L14.104 18.23L6.52211 16.6426C6.20551 16.5763 5.96708 16.3145 5.93059 15.9931C5.89411 15.6717 6.06779 15.3631 6.36148 15.2276L21.9546 8.02986C22.1962 7.91837 22.4787 7.94317 22.6971 8.09504ZM9.04897 15.6391L14.6352 16.8087C14.7811 16.8393 14.9147 16.9126 15.0187 17.0194L20.4485 22.5924L21.4231 9.9273L9.04897 15.6391Z" fill="#07669A"/>
<path fill-rule="evenodd" clip-rule="evenodd" d="M17.5592 15.0401C17.818 15.3636 17.7655 15.8356 17.442 16.0943L14.9414 18.0943C14.6179 18.353 14.146 18.3005 13.8873 17.977C13.6285 17.6536 13.681 17.1816 14.0045 16.9229L16.5051 14.9229C16.8285 14.6641 17.3005 14.7166 17.5592 15.0401ZM11.4444 16.189C11.8525 16.1183 12.2407 16.3919 12.3114 16.8L13.263 22.2946L16.5566 19.5643C16.8755 19.3 17.3483 19.3442 17.6126 19.6631C17.877 19.982 17.8328 20.4548 17.5139 20.7191L13.2236 24.2757C13.0176 24.4464 12.7363 24.4945 12.4853 24.4019C12.2343 24.3093 12.0516 24.0899 12.006 23.8263L10.8334 17.056C10.7627 16.6479 11.0363 16.2597 11.4444 16.189Z" fill="#07669A"/>
</g>
<defs>
<clipPath id="clip0_456_697">
<rect width="32" height="32" fill="white"/>
</clipPath>
</defs>
</svg>
