<svg width="181" height="45" viewBox="0 0 181 45" fill="none" xmlns="http://www.w3.org/2000/svg">
<path d="M84.9092 34.606V31.7528H88.3121V28.1577C88.3121 27.9675 88.2364 27.8058 88.0852 27.6726C87.9529 27.5395 87.7922 27.4729 87.6031 27.4729H86.1853C85.9962 27.4729 85.8261 27.5395 85.6748 27.6726C85.5425 27.8058 85.4763 27.9675 85.4763 28.1577V28.8995H82.6406V27.4729C82.6406 26.674 82.9147 25.9987 83.463 25.4471C84.0301 24.8954 84.7012 24.6196 85.4763 24.6196H88.3121C89.0872 24.6196 89.7488 24.8954 90.2971 25.4471C90.8642 25.9987 91.1478 26.674 91.1478 27.4729V38.8859C91.1478 39.6658 90.8642 40.3411 90.2971 40.9118C89.7488 41.4634 89.0872 41.7392 88.3121 41.7392H85.4763C84.7012 41.7392 84.0301 41.4634 83.463 40.9118C82.9147 40.3411 82.6406 39.6658 82.6406 38.8859V37.4593H85.4763V38.1441C85.4763 38.3533 85.5425 38.534 85.6748 38.6862C85.8261 38.8194 85.9962 38.8859 86.1853 38.8859H87.6031C87.7922 38.8859 87.9529 38.8194 88.0852 38.6862C88.2364 38.534 88.3121 38.3533 88.3121 38.1441V34.606H84.9092Z" fill="#07669A"/>
<path d="M76.9691 37.4593V38.8859C76.9691 39.6658 76.6855 40.3411 76.1184 40.9118C75.5701 41.4634 74.9085 41.7392 74.1334 41.7392H71.2976C70.5225 41.7392 69.8514 41.4634 69.2843 40.9118C68.736 40.3411 68.4619 39.6658 68.4619 38.8859V27.4729C68.4619 26.674 68.736 25.9987 69.2843 25.4471C69.8514 24.8954 70.5225 24.6196 71.2976 24.6196H74.1334C74.9085 24.6196 75.5701 24.8954 76.1184 25.4471C76.6855 25.9987 76.9691 26.674 76.9691 27.4729V28.8995H74.1334V28.1577C74.1334 27.9675 74.0577 27.8058 73.9065 27.6726C73.7742 27.5395 73.6135 27.4729 73.4244 27.4729H72.0066C71.8175 27.4729 71.6474 27.5395 71.4961 27.6726C71.3638 27.8058 71.2976 27.9675 71.2976 28.1577V38.1441C71.2976 38.3533 71.3638 38.534 71.4961 38.6862C71.6474 38.8194 71.8175 38.8859 72.0066 38.8859H73.4244C73.6135 38.8859 73.7742 38.8194 73.9065 38.6862C74.0577 38.534 74.1334 38.3533 74.1334 38.1441V37.4593H76.9691Z" fill="#07669A"/>
<path d="M57.1189 41.7392H54.2832V24.6196H59.9546C60.7297 24.6196 61.3914 24.8954 61.9397 25.4471C62.5068 25.9987 62.7904 26.674 62.7904 27.4729V32.4661C62.7904 33.1699 62.5541 33.7881 62.0814 34.3207C61.6277 34.8533 61.0606 35.1767 60.38 35.2908L57.1189 35.3194V41.7392ZM59.9546 28.1577C59.9546 27.9675 59.879 27.8058 59.7278 27.6726C59.5955 27.5395 59.4348 27.4729 59.2457 27.4729H57.1189V32.4661H59.2457C59.4348 32.4661 59.5955 32.3995 59.7278 32.2664C59.879 32.1142 59.9546 31.943 59.9546 31.7528V28.1577Z" fill="#07669A"/>
<path d="M169.09 24.6196H177.597V27.4729H174.761V41.7392H171.926V27.4729H169.09V24.6196Z" fill="#07669A"/>
<path d="M164.988 41.7392H161.925L159.345 34.606H159.09V41.7392H156.254V24.6196H159.09V31.7528H159.345L161.897 24.7338H164.96L161.897 33.1794L164.988 41.7392Z" fill="#07669A"/>
<path d="M143.487 24.6196H150.577V27.4729H146.323V31.7528H149.726V34.606H146.323V38.8859H150.577V41.7392H143.487V24.6196Z" fill="#07669A"/>
<path d="M134.98 24.6196C135.755 24.6196 136.417 24.8954 136.965 25.4471C137.532 25.9987 137.816 26.674 137.816 27.4729V38.8859C137.816 39.6658 137.532 40.3411 136.965 40.9118C136.417 41.4634 135.755 41.7392 134.98 41.7392H132.144C131.369 41.7392 130.698 41.4634 130.131 40.9118C129.583 40.3411 129.309 39.6658 129.309 38.8859V27.4729C129.309 26.674 129.583 25.9987 130.131 25.4471C130.698 24.8954 131.369 24.6196 132.144 24.6196H134.98ZM134.98 28.1577C134.98 27.9675 134.904 27.8058 134.753 27.6726C134.621 27.5395 134.46 27.4729 134.271 27.4729H132.853C132.664 27.4729 132.494 27.5395 132.343 27.6726C132.21 27.8058 132.144 27.9675 132.144 28.1577V38.1441C132.144 38.3533 132.21 38.534 132.343 38.6862C132.494 38.8194 132.664 38.8859 132.853 38.8859H134.271C134.46 38.8859 134.621 38.8194 134.753 38.6862C134.904 38.534 134.98 38.3533 134.98 38.1441V28.1577Z" fill="#07669A"/>
<path d="M117.966 41.7392H115.13V24.6196H120.801C121.576 24.6196 122.238 24.8954 122.786 25.4471C123.353 25.9987 123.637 26.674 123.637 27.4729V32.4661C123.637 33.1699 123.401 33.7881 122.928 34.3207C122.474 34.8533 121.907 35.1767 121.227 35.2908L117.966 35.3194V41.7392ZM120.801 28.1577C120.801 27.9675 120.726 27.8058 120.574 27.6726C120.442 27.5395 120.281 27.4729 120.092 27.4729H117.966V32.4661H120.092C120.281 32.4661 120.442 32.3995 120.574 32.2664C120.726 32.1142 120.801 31.943 120.801 31.7528V28.1577Z" fill="#07669A"/>
<path d="M100.951 24.6196H109.458V41.7392H106.623V27.4729H103.787V41.7392H100.951V24.6196Z" fill="#07669A"/>
<path fill-rule="evenodd" clip-rule="evenodd" d="M3.24023 3.26074H41.3199V41.576H3.24023V3.26074ZM5.23866 5.27153H39.3215V39.5652H5.23866V5.27153Z" fill="#07669A"/>
<path d="M25.0079 33.7033H11.2236V19.6416H12.8987V32.0195H25.0079V33.7033Z" fill="#07669A"/>
<path d="M14.9287 11.2939H33.4955V29.9756L14.9287 11.2939Z" fill="#07669A"/>
</svg>
