<svg width="32" height="32" viewBox="0 0 32 32" fill="none" xmlns="http://www.w3.org/2000/svg">
<g clip-path="url(#clip0_435_1316)">
<path fill-rule="evenodd" clip-rule="evenodd" d="M5.36773 5.36773C8.18747 2.54798 12.0119 0.963867 15.9996 0.963867C19.9873 0.963867 23.8117 2.54798 26.6314 5.36773C29.4512 8.18747 31.0353 12.0119 31.0353 15.9996C31.0353 19.9873 29.4512 23.8117 26.6314 26.6314C23.8117 29.4512 19.9873 31.0353 15.9996 31.0353C12.0119 31.0353 8.18747 29.4512 5.36773 26.6314C2.54798 23.8117 0.963867 19.9873 0.963867 15.9996C0.963867 12.0119 2.54798 8.18747 5.36773 5.36773ZM15.9996 2.46387C12.4097 2.46387 8.96682 3.88995 6.42839 6.42839C3.88995 8.96682 2.46387 12.4097 2.46387 15.9996C2.46387 19.5895 3.88995 23.0323 6.42839 25.5708C8.96682 28.1092 12.4097 29.5353 15.9996 29.5353C19.5895 29.5353 23.0323 28.1092 25.5708 25.5708C28.1092 23.0323 29.5353 19.5895 29.5353 15.9996C29.5353 12.4097 28.1092 8.96682 25.5708 6.42839C23.0323 3.88995 19.5895 2.46387 15.9996 2.46387Z" fill="#07669A"/>
<path fill-rule="evenodd" clip-rule="evenodd" d="M22.6952 8.09419C22.9136 8.24606 23.0352 8.50227 23.0148 8.76751L21.8148 24.3607C21.7922 24.6544 21.5996 24.9078 21.3226 25.0082C21.0456 25.1086 20.7354 25.0375 20.5298 24.8265L14.102 18.2292L6.52016 16.6418C6.20356 16.5755 5.96512 16.3137 5.92864 15.9923C5.89215 15.6709 6.06584 15.3623 6.35953 15.2267L21.9527 8.02901C22.1942 7.91752 22.4767 7.94232 22.6952 8.09419ZM9.04701 15.6383L14.6333 16.8079C14.7792 16.8384 14.9127 16.9118 15.0168 17.0186L20.4465 22.5915L21.4212 9.92644L9.04701 15.6383Z" fill="#07669A"/>
<path fill-rule="evenodd" clip-rule="evenodd" d="M17.5592 15.0394C17.818 15.3629 17.7655 15.8348 17.442 16.0935L14.9414 18.0935C14.6179 18.3523 14.146 18.2998 13.8873 17.9763C13.6285 17.6528 13.681 17.1809 14.0045 16.9221L16.5051 14.9221C16.8285 14.6634 17.3005 14.7159 17.5592 15.0394ZM11.4444 16.1883C11.8525 16.1176 12.2407 16.3911 12.3114 16.7993L13.263 22.2939L16.5566 19.5636C16.8755 19.2992 17.3483 19.3434 17.6126 19.6623C17.877 19.9812 17.8328 20.454 17.5139 20.7184L13.2236 24.275C13.0176 24.4457 12.7363 24.4938 12.4853 24.4012C12.2343 24.3085 12.0516 24.0892 12.006 23.8255L10.8334 17.0553C10.7627 16.6471 11.0363 16.259 11.4444 16.1883Z" fill="#07669A"/>
</g>
<defs>
<clipPath id="clip0_435_1316">
<rect width="32" height="32" fill="white"/>
</clipPath>
</defs>
</svg>
