<svg width="32" height="32" viewBox="0 0 32 32" fill="none" xmlns="http://www.w3.org/2000/svg">
<path d="M24.6347 18.7397L19.9284 16.3868C19.7893 16.3176 19.6346 16.2864 19.4796 16.2962C19.3247 16.306 19.1751 16.3565 19.0459 16.4426L16.7398 17.9794C15.5724 17.3818 14.6225 16.4321 14.0249 15.2647L15.5633 12.9603C15.6494 12.8311 15.6999 12.6815 15.7097 12.5266C15.7195 12.3717 15.6883 12.2169 15.6191 12.0779L13.266 7.37206C13.1928 7.22483 13.08 7.10097 12.9402 7.01444C12.8004 6.92792 12.6392 6.88217 12.4748 6.88235C10.9925 6.88235 9.57101 7.47111 8.52292 8.51911C7.47483 9.56711 6.88602 10.9885 6.88602 12.4706C6.88991 15.8236 8.22374 19.0382 10.5949 21.4091C12.966 23.7801 16.1809 25.1138 19.5342 25.1176C21.0164 25.1176 22.4379 24.5289 23.486 23.4809C24.5341 22.4329 25.1229 21.0115 25.1229 19.5294C25.123 19.3654 25.0773 19.2046 24.9911 19.0652C24.9048 18.9257 24.7814 18.813 24.6347 18.7397ZM19.5342 23.3529C16.6488 23.3494 13.8827 22.2018 11.8424 20.1617C9.80214 18.1216 8.65439 15.3557 8.65088 12.4706C8.65097 11.5478 8.98482 10.6562 9.59083 9.96019C10.1968 9.26422 11.0341 8.81089 11.9482 8.68382L13.8102 12.4074L12.2821 14.6985C12.2018 14.8194 12.1525 14.9581 12.1387 15.1026C12.1248 15.247 12.1468 15.3926 12.2027 15.5265C13.0141 17.4555 14.5488 18.9901 16.478 19.8015C16.612 19.8573 16.7576 19.8793 16.902 19.8654C17.0464 19.8516 17.1852 19.8023 17.3061 19.7221L19.5974 18.1941L23.3213 20.0559C23.1942 20.9699 22.7409 21.8071 22.0448 22.4131C21.3488 23.019 20.4571 23.3529 19.5342 23.3529ZM16.0045 1C13.4039 0.999454 10.8479 1.67489 8.58719 2.96005C6.32646 4.24521 4.43868 6.09594 3.10905 8.33068C1.77942 10.5654 1.05362 13.1074 1.00286 15.7072C0.952095 18.307 1.57811 20.8754 2.81949 23.1603L1.11051 28.2882C0.989526 28.651 0.971968 29.0403 1.05981 29.4124C1.14765 29.7846 1.33741 30.125 1.60783 30.3954C1.87825 30.6658 2.21864 30.8555 2.59084 30.9433C2.96305 31.0312 3.35237 31.0136 3.71515 30.8926L8.84355 29.1838C10.8511 30.2731 13.0808 30.8897 15.3628 30.9865C17.6448 31.0833 19.9188 30.6578 22.0114 29.7424C24.1039 28.827 25.9598 27.4459 27.4375 25.7044C28.9152 23.9629 29.9757 21.9071 30.5381 19.6935C31.1005 17.48 31.15 15.1673 30.6828 12.9317C30.2156 10.6961 29.244 8.59677 27.8422 6.79367C26.4403 4.99058 24.6452 3.53137 22.5937 2.52732C20.5422 1.52327 18.2885 1.00088 16.0045 1ZM16.0045 29.2353C13.6777 29.2358 11.3919 28.6231 9.37742 27.4588C9.24312 27.3816 9.0911 27.3406 8.9362 27.3397C8.84125 27.3403 8.74697 27.3556 8.65677 27.3853L3.15775 29.2176C3.10593 29.2349 3.05031 29.2374 2.99714 29.2249C2.94396 29.2123 2.89534 29.1852 2.85671 29.1466C2.81807 29.108 2.79097 29.0594 2.77842 29.0062C2.76587 28.953 2.76838 28.8974 2.78566 28.8456L4.61818 23.3529C4.65782 23.2343 4.67177 23.1085 4.65909 22.984C4.64642 22.8595 4.6074 22.7391 4.54464 22.6309C3.08459 20.109 2.49772 17.1757 2.87507 14.2863C3.25242 11.3968 4.57289 8.71259 6.63163 6.65012C8.69037 4.58765 11.3723 3.2622 14.2613 2.8794C17.1503 2.4966 20.0849 3.07786 22.6098 4.53299C25.1347 5.98812 27.1088 8.23577 28.2258 10.9273C29.3427 13.6187 29.5401 16.6036 28.7874 19.4187C28.0346 22.2338 26.3738 24.7218 24.0625 26.4968C21.7512 28.2717 18.9187 29.2343 16.0045 29.2353Z" fill="#07669A"/>
</svg>
